<svg width="18" height="18" viewBox="0 0 18 18"  xmlns="http://www.w3.org/2000/svg">
<path fill-rule="evenodd" clip-rule="evenodd" d="M0.522085 16.3121C5.17881 11.6045 9.94329 6.78566 14.8164 1.85486C10.0502 1.85232 6.60518 1.84892 4.48217 1.84553C4.20894 1.81498 3.87802 1.50951 3.8585 1.03179C3.83898 0.554068 4.25816 0.15526 4.49489 0.157805C8.51183 0.166291 12.6017 0.166292 16.7646 0.157807C16.8778 0.151818 16.991 0.170579 17.0962 0.212783C17.2014 0.254988 17.2962 0.319622 17.3739 0.402183C17.4565 0.479606 17.5211 0.574214 17.5632 0.679334C17.6053 0.784455 17.6238 0.897528 17.6174 1.01058C17.5694 5.25919 17.5188 9.50777 17.4655 13.7563C17.4444 13.9818 17.3381 14.1908 17.1683 14.3407C16.9986 14.4906 16.778 14.5702 16.5516 14.5633C16.0849 14.5429 15.8066 14.3104 15.7701 13.6783C15.8058 10.3164 15.849 6.80433 15.9034 3.14208C11.088 8.02196 6.35656 12.8077 1.71002 17.5C1.63036 17.5786 1.53581 17.6405 1.43192 17.6821C1.32803 17.7237 1.21688 17.7442 1.10499 17.7423C0.993095 17.7404 0.882704 17.7162 0.780282 17.6711C0.67786 17.626 0.585466 17.5609 0.508509 17.4797C0.0783054 17.0495 0.260739 16.5734 0.522085 16.3121Z" />
</svg>
