<svg width="18" height="18" viewBox="0 0 18 18" fill="" xmlns="http://www.w3.org/2000/svg">
<path fill-rule="evenodd" clip-rule="evenodd" d="M0.521109 16.3121C5.17783 11.6045 9.94232 6.78569 14.8154 1.85489C10.0492 1.85235 6.60421 1.84895 4.48119 1.84556C4.20796 1.81501 3.87704 1.50954 3.85752 1.03182C3.83801 0.554098 4.25718 0.15529 4.49392 0.157836C8.51085 0.166321 12.6008 0.166322 16.7636 0.157837C16.8768 0.151848 16.99 0.170609 17.0952 0.212814C17.2004 0.255018 17.2952 0.319652 17.3729 0.402213C17.4555 0.479636 17.5201 0.574244 17.5622 0.679365C17.6043 0.784485 17.6228 0.897558 17.6164 1.01061C17.5685 5.25922 17.5178 9.5078 17.4645 13.7563C17.4434 13.9819 17.3371 14.1908 17.1674 14.3408C16.9976 14.4907 16.777 14.5703 16.5507 14.5633C16.084 14.5429 15.8056 14.3104 15.7692 13.6783C15.8048 10.3164 15.8481 6.80436 15.9024 3.14211C11.087 8.02199 6.35559 12.8077 1.70905 17.5001C1.62938 17.5786 1.53484 17.6406 1.43094 17.6822C1.32705 17.7238 1.21591 17.7442 1.10401 17.7423C0.992118 17.7404 0.881727 17.7162 0.779306 17.6711C0.676883 17.626 0.584489 17.5609 0.507533 17.4797C0.0773288 17.0495 0.259762 16.5735 0.521109 16.3121Z" fill="black" fill-opacity="0.65"/>
</svg>
