<svg width="24" height="24" viewBox="0 0 24 24" xmlns="http://www.w3.org/2000/svg">
<path d="M8.87647 2.652C9.03757 2.49198 9.25478 2.40118 9.48184 2.39894C9.70889 2.3967 9.92785 2.48319 10.0921 2.64C10.1725 2.71621 10.2368 2.80778 10.2812 2.90929C10.3256 3.01079 10.3491 3.12018 10.3505 3.23096C10.3518 3.34173 10.3309 3.45166 10.289 3.55421C10.2471 3.65677 10.185 3.74987 10.1065 3.828L2.84768 11.0916L23.1649 11.2176C23.3877 11.2189 23.6008 11.3086 23.7574 11.467C23.9141 11.6255 24.0013 11.8396 24.0001 12.0624C23.9988 12.2852 23.9091 12.4983 23.7506 12.655C23.5922 12.8116 23.3781 12.8989 23.1553 12.8976L2.98448 12.7728L10.5481 20.1648C10.6915 20.304 10.7797 20.4904 10.7965 20.6895C10.8133 20.8887 10.7574 21.0872 10.6393 21.2484L10.5493 21.3528C10.3865 21.5106 10.1687 21.5988 9.94207 21.5988C9.7154 21.5988 9.49763 21.5106 9.33487 21.3528L0.252075 12.48C0.17313 12.4033 0.110264 12.3117 0.0671512 12.2104C0.0240389 12.1092 0.00154588 12.0003 0.000987231 11.8903C0.000428581 11.7802 0.0218155 11.6711 0.0638976 11.5695C0.10598 11.4678 0.167913 11.3755 0.246075 11.298L8.87647 2.652Z" />
</svg>
