<svg width="34" height="13" viewBox="0 0 34 13" fill="none" xmlns="http://www.w3.org/2000/svg">
<path d="M0.646447 3.64645C0.451184 3.84171 0.451184 4.15829 0.646447 4.35355L3.82843 7.53553C4.02369 7.7308 4.34027 7.7308 4.53553 7.53553C4.7308 7.34027 4.7308 7.02369 4.53553 6.82843L1.70711 4L4.53553 1.17157C4.7308 0.976311 4.7308 0.659728 4.53553 0.464466C4.34027 0.269204 4.02369 0.269204 3.82843 0.464466L0.646447 3.64645ZM1 4.5H29V3.5H1V4.5ZM29 11.5H1V12.5H29V11.5ZM32.5 8C32.5 9.933 30.933 11.5 29 11.5V12.5C31.4853 12.5 33.5 10.4853 33.5 8H32.5ZM29 4.5C30.933 4.5 32.5 6.067 32.5 8H33.5C33.5 5.51472 31.4853 3.5 29 3.5V4.5Z" fill="#F5F5F5"/>
</svg>
