<svg width="12" height="12" viewBox="0 0 12 12" xmlns="http://www.w3.org/2000/svg">
<path d="M9.53121 0.939221L6.01601 4.44802L2.50401 0.939221C2.32109 0.75619 2.07907 0.644122 1.82117 0.623021C1.56326 0.601919 1.30625 0.673158 1.09601 0.824021L0.961609 0.939221C0.757211 1.14383 0.642399 1.42121 0.642399 1.71042C0.642399 1.99963 0.757211 2.27701 0.961609 2.48162L4.47361 5.99042L0.961609 9.49922C0.756862 9.70376 0.641752 9.98125 0.641602 10.2707C0.641527 10.414 0.669679 10.5559 0.724448 10.6883C0.779218 10.8207 0.859533 10.941 0.960809 11.0424C1.06208 11.1438 1.18234 11.2242 1.3147 11.2791C1.44706 11.3341 1.58894 11.3624 1.73224 11.3624C2.02165 11.3626 2.29926 11.2478 2.50401 11.0432L6.01601 7.53122L9.53121 11.0432C9.91521 11.4272 10.512 11.464 10.9392 11.1568L11.0736 11.0416C11.278 10.837 11.3928 10.5596 11.3928 10.2704C11.3928 9.98121 11.278 9.70383 11.0736 9.49922L7.56001 5.99042L11.072 2.48162C11.2615 2.27434 11.3637 2.00198 11.3575 1.72122C11.3513 1.44045 11.237 1.1729 11.0386 0.974221C10.8401 0.77554 10.5727 0.661029 10.2919 0.65451C10.0112 0.647991 9.73869 0.749966 9.53121 0.939221Z" />
</svg>
