<svg width="18" height="19" viewBox="0 0 18 19" xmlns="http://www.w3.org/2000/svg">
<path d="M15.0891 3.41094C13.4648 1.7832 11.2992 0.886719 9 0.886719C6.70078 0.886719 4.53516 1.7832 2.91094 3.41094C1.28672 5.03867 0.386719 7.20078 0.386719 9.5C0.386719 11.7992 1.2832 13.9648 2.91094 15.5891C4.53867 17.2133 6.70078 18.1133 9 18.1133C11.2992 18.1133 13.4648 17.2168 15.0891 15.5891C16.7133 13.9613 17.6133 11.7992 17.6133 9.5C17.6133 7.20078 16.7168 5.03516 15.0891 3.41094V3.41094ZM16.8328 9.11328H13.493C13.4613 7.78438 13.275 6.50469 12.948 5.36914C13.5844 5.04219 14.1785 4.63086 14.7234 4.1457C15.9539 5.46055 16.7379 7.19727 16.8328 9.11328ZM9.38672 9.88672H12.723C12.6949 11.1102 12.5262 12.2809 12.2344 13.3285C11.3344 12.9664 10.3746 12.7555 9.38672 12.7098V9.88672V9.88672ZM14.168 3.60781C13.718 4.00508 13.2258 4.34258 12.7055 4.62383C12.5719 4.25117 12.4207 3.89961 12.252 3.56914C11.918 2.9082 11.5383 2.3668 11.1199 1.95195C12.2625 2.27187 13.2996 2.84492 14.168 3.60781ZM9.38672 1.77969C10.1918 1.95898 10.9512 2.70078 11.5629 3.91016C11.7281 4.23711 11.8758 4.58516 12.0059 4.9543C11.1797 5.29531 10.2973 5.4957 9.38672 5.54141V1.77969ZM12.2379 5.69609C12.5262 6.73672 12.6914 7.90039 12.7195 9.1168H9.38672V6.31836C10.3781 6.27266 11.3379 6.0582 12.2379 5.69609V5.69609ZM8.61328 9.11328H5.27695C5.30508 7.89688 5.47031 6.7332 5.75859 5.69258C6.65859 6.0582 7.62187 6.26914 8.60977 6.31133V9.11328H8.61328ZM8.6168 1.77969V5.54141C7.70625 5.4957 6.82031 5.29531 5.99766 4.9543C6.12773 4.58516 6.27539 4.23711 6.44062 3.91016C7.05234 2.70078 7.81172 1.95898 8.6168 1.77969V1.77969ZM6.88359 1.95195C6.46523 2.3668 6.08555 2.91172 5.75156 3.56914C5.58633 3.89961 5.43516 4.25117 5.29805 4.62383C4.77773 4.34258 4.28906 4.00508 3.83555 3.60781C4.70391 2.84492 5.74102 2.27187 6.88359 1.95195ZM3.28008 4.1457C3.825 4.63086 4.41914 5.03867 5.05547 5.36914C4.72852 6.5082 4.53867 7.78438 4.51055 9.11328H1.1707C1.26562 7.19727 2.04961 5.46055 3.28008 4.1457V4.1457ZM1.1707 9.88672H4.51055C4.54219 11.2262 4.73203 12.5094 5.0625 13.652C4.42969 13.9789 3.83555 14.3832 3.29414 14.8684C2.05312 13.55 1.26562 11.8098 1.1707 9.88672V9.88672ZM3.84961 15.4062C4.29961 15.0125 4.78828 14.675 5.30508 14.3973C5.43867 14.7594 5.58633 15.1074 5.75156 15.4309C6.08555 16.0918 6.46523 16.6332 6.88359 17.0516C5.74805 16.7316 4.71445 16.1621 3.84961 15.4062ZM8.6168 17.2203C7.81172 17.041 7.05234 16.2992 6.44062 15.0898C6.27891 14.7699 6.13477 14.4289 6.00469 14.0668C6.82734 13.7258 7.70977 13.5254 8.6168 13.4832V17.2203V17.2203ZM5.76914 13.3285C5.47734 12.2809 5.30859 11.1102 5.28047 9.88672H8.6168V12.7098C7.62891 12.752 6.66914 12.9629 5.76914 13.3285ZM9.39023 17.2203V13.4832C10.2973 13.5289 11.1797 13.7258 12.0023 14.0668C11.8723 14.4289 11.7281 14.7699 11.5664 15.0898C10.9547 16.2992 10.1953 17.041 9.39023 17.2203V17.2203ZM11.1234 17.048C11.5418 16.6332 11.9215 16.0883 12.2555 15.4273C12.4207 15.1039 12.5684 14.7559 12.702 14.3938C13.2187 14.6715 13.7074 15.009 14.1574 15.4027C13.2926 16.1621 12.259 16.7316 11.1234 17.048V17.048ZM14.7164 14.8684C14.175 14.3867 13.5809 13.9789 12.948 13.652C13.2785 12.5094 13.4684 11.2227 13.5 9.88672H16.8398C16.7414 11.8098 15.9539 13.55 14.7164 14.8684V14.8684Z" fill="white"/>
</svg>
