<svg width="12" height="9" viewBox="0 0 12 9" xmlns="http://www.w3.org/2000/svg">
<path d="M6.06239 6.16679L10.0866 2.14799C10.1257 2.10872 10.1722 2.07769 10.2235 2.05674C10.2748 2.03578 10.3297 2.02533 10.3851 2.026C10.4405 2.02667 10.4952 2.03845 10.5459 2.06064C10.5967 2.08284 10.6425 2.11499 10.6806 2.15519C10.7587 2.23743 10.8016 2.34687 10.8002 2.46026C10.7989 2.57364 10.7534 2.68203 10.6734 2.76239L6.35159 7.07819C6.31281 7.11724 6.26663 7.14816 6.21577 7.16915C6.1649 7.19014 6.11036 7.20077 6.05533 7.20044C6.0003 7.2001 5.9459 7.1888 5.89529 7.16719C5.84468 7.14559 5.79889 7.11411 5.76059 7.07459L1.32359 2.53199C1.24506 2.45067 1.20117 2.34204 1.20117 2.22899C1.20117 2.11595 1.24506 2.00732 1.32359 1.92599C1.36217 1.88626 1.40834 1.85467 1.45936 1.8331C1.51037 1.81153 1.5652 1.80042 1.62059 1.80042C1.67597 1.80042 1.7308 1.81153 1.78182 1.8331C1.83283 1.85467 1.879 1.88626 1.91759 1.92599L6.06239 6.16679Z" />
</svg>
