<svg width="24" height="25" viewBox="0 0 24 25" xmlns="http://www.w3.org/2000/svg">
    <path d="M11.9995 0.980103C5.63709 0.980103 0.479492 6.1377 0.479492 12.5001C0.479492 18.8625 5.63709 24.0201 11.9995 24.0201C18.3619 24.0201 23.5195 18.8625 23.5195 12.5001C23.5195 6.1377 18.3619 0.980103 11.9995 0.980103ZM9.17949 17.2749H6.84669V9.7677H9.17949V17.2749ZM7.99869 8.8461C7.26189 8.8461 6.78549 8.3241 6.78549 7.6785C6.78549 7.0197 7.27629 6.5133 8.02869 6.5133C8.78109 6.5133 9.24189 7.0197 9.25629 7.6785C9.25629 8.3241 8.78109 8.8461 7.99869 8.8461ZM17.6995 17.2749H15.3667V13.1145C15.3667 12.1461 15.0283 11.4885 14.1847 11.4885C13.5403 11.4885 13.1575 11.9337 12.9883 12.3621C12.9259 12.5145 12.9103 12.7305 12.9103 12.9453V17.2737H10.5763V12.1617C10.5763 11.2245 10.5463 10.4409 10.5151 9.7665H12.5419L12.6487 10.8093H12.6955C13.0027 10.3197 13.7551 9.5973 15.0139 9.5973C16.5487 9.5973 17.6995 10.6257 17.6995 12.8361V17.2749Z"/>
</svg>
