<svg width="64" height="64" viewBox="0 0 64 64"  xmlns="http://www.w3.org/2000/svg">
<path d="M58.1 28.6225L22.08 6.5875C21.4727 6.21563 20.7772 6.01262 20.0652 5.99943C19.3532 5.98625 18.6506 6.16337 18.03 6.5125C17.4153 6.8562 16.9032 7.35744 16.5464 7.96467C16.1896 8.57191 16.001 9.26321 16 9.9675V54.0325C16.0046 55.089 16.4286 56.1003 17.1787 56.8443C17.9287 57.5883 18.9435 58.004 20 58C20.7374 57.9997 21.4605 57.7964 22.09 57.4125L58.1 35.3775C58.6788 35.0247 59.1572 34.529 59.4891 33.9379C59.8211 33.3469 59.9954 32.6804 59.9954 32.0025C59.9954 31.3246 59.8211 30.6581 59.4891 30.0671C59.1572 29.476 58.6788 28.9803 58.1 28.6275V28.6225ZM20 53.985V10L55.9575 32L20 53.985Z" fill="#004348"/>
</svg>
