<svg width="16" height="17" viewBox="0 0 16 17" xmlns="http://www.w3.org/2000/svg">
<path fill-rule="evenodd" clip-rule="evenodd" d="M6.5 2C5.17392 2 3.90215 2.52678 2.96447 3.46447C2.02678 4.40215 1.5 5.67392 1.5 7C1.5 8.32608 2.02678 9.59785 2.96447 10.5355C3.90215 11.4732 5.17392 12 6.5 12C7.82608 12 9.09785 11.4732 10.0355 10.5355C10.9732 9.59785 11.5 8.32608 11.5 7C11.5 5.67392 10.9732 4.40215 10.0355 3.46447C9.09785 2.52678 7.82608 2 6.5 2ZM0 7C0 5.27609 0.684819 3.62279 1.90381 2.40381C3.12279 1.18482 4.77609 0.5 6.5 0.5C8.22391 0.5 9.87721 1.18482 11.0962 2.40381C12.3152 3.62279 13 5.27609 13 7C13 8.72391 12.3152 10.3772 11.0962 11.5962C9.87721 12.8152 8.22391 13.5 6.5 13.5C4.77609 13.5 3.12279 12.8152 1.90381 11.5962C0.684819 10.3772 0 8.72391 0 7Z" fill="white"/>
<path fill-rule="evenodd" clip-rule="evenodd" d="M10.4693 10.97C10.61 10.8296 10.8006 10.7507 10.9993 10.7507C11.1981 10.7507 11.3887 10.8296 11.5293 10.97L15.5293 14.97C15.603 15.0387 15.6621 15.1215 15.7031 15.2135C15.7441 15.3055 15.7662 15.4048 15.7679 15.5055C15.7697 15.6062 15.7512 15.7062 15.7135 15.7996C15.6757 15.893 15.6196 15.9778 15.5484 16.049C15.4772 16.1203 15.3923 16.1764 15.2989 16.2141C15.2055 16.2519 15.1055 16.2704 15.0048 16.2686C14.9041 16.2668 14.8048 16.2448 14.7128 16.2038C14.6208 16.1628 14.538 16.1037 14.4693 16.03L10.4693 12.03C10.3289 11.8894 10.25 11.6988 10.25 11.5C10.25 11.3013 10.3289 11.1106 10.4693 10.97Z" fill="white"/>
</svg>
