<svg width="24" height="25" viewBox="0 0 24 25" xmlns="http://www.w3.org/2000/svg">
<path d="M11.9998 0.5C5.33309 0.5 -0.000244141 5.83333 -0.000244141 12.5C-0.000244141 19.1667 5.33309 24.5 11.9998 24.5C18.6664 24.5 23.9998 19.1667 23.9998 12.5C23.9998 5.83333 18.6664 0.5 11.9998 0.5ZM11.9998 9.83333C13.4664 9.83333 14.6664 11.0333 14.6664 12.5C14.6664 13.9667 13.4664 15.1667 11.9998 15.1667C10.5331 15.1667 9.33309 13.9667 9.33309 12.5C9.33309 11.0333 10.5331 9.83333 11.9998 9.83333ZM15.7331 7.16667C15.7331 6.23333 16.5331 5.56667 17.3331 5.56667C18.1331 5.56667 18.9331 6.36667 18.9331 7.16667C18.9331 7.96667 18.2664 8.76667 17.3331 8.76667C16.3998 8.76667 15.7331 8.1 15.7331 7.16667ZM11.9998 21.8333C6.79976 21.8333 2.66642 17.7 2.66642 12.5H6.66642C6.66642 15.4333 9.06642 17.8333 11.9998 17.8333C14.9331 17.8333 17.3331 15.4333 17.3331 12.5H21.3331C21.3331 17.7 17.1998 21.8333 11.9998 21.8333Z"/>
</svg>
