<svg width="403" height="734" viewBox="0 0 403 734" fill="none" xmlns="http://www.w3.org/2000/svg">
<g clip-path="url(#clip0_50_13432)">
<mask id="mask0_50_13432" style="mask-type:alpha" maskUnits="userSpaceOnUse" x="1" y="-65" width="787" height="798">
<rect x="1.72852" y="217.99" width="563" height="595" transform="rotate(-30.1752 1.72852 217.99)" fill="url(#paint0_linear_50_13432)"/>
</mask>
<g mask="url(#mask0_50_13432)">
<path d="M620.336 326.199C515.888 149.255 650.339 184.54 573.683 91.7609C442.748 -66.7065 316.19 179.144 198.534 141.482C63.4022 98.2245 -10.8021 332.469 198.401 501.057C407.6 669.647 507.951 616.078 575.043 571.097C642.135 526.116 700.113 461.352 620.334 326.195L620.336 326.199Z" stroke="#F3E6D9" stroke-width="2" stroke-miterlimit="10"/>
<path d="M601.398 325.156C503.497 163.67 630.048 193.532 559.169 107.334C438.905 -38.7394 320.943 186.516 212.43 155.763C87.4346 120.343 21.5061 336.328 213.424 492.216C405.182 647.919 500.031 598.665 562.576 555.796C627.158 511.531 677.493 450.662 601.405 325.158L601.398 325.156Z" stroke="#F3E6D9" stroke-width="2" stroke-miterlimit="10"/>
<path d="M582.466 324.11C491.165 178.064 609.763 202.522 544.658 122.912C435.064 -10.7795 325.665 193.893 226.333 170.046C111.436 142.467 53.8108 340.188 228.445 483.37C402.759 626.183 492.092 581.216 550.108 540.491C612.169 496.924 654.894 439.965 582.469 324.114L582.466 324.11Z" stroke="#F3E6D9" stroke-width="2" stroke-miterlimit="10"/>
<path d="M563.53 323.072C478.902 192.446 589.474 211.519 530.147 138.489C431.22 17.1878 330.348 201.287 240.23 184.331C135.389 164.602 86.1143 344.049 243.465 474.524C400.333 604.454 484.131 563.733 537.638 525.187C597.171 482.292 632.34 429.266 563.535 323.069L563.53 323.072Z" stroke="#F3E6D9" stroke-width="2" stroke-miterlimit="10"/>
<path d="M544.598 322.026C466.727 206.784 569.183 220.511 515.636 154.067C427.381 45.1521 334.985 208.714 254.129 198.616C159.286 186.769 118.421 347.914 258.489 465.683C397.912 582.721 476.155 546.223 525.169 509.881C582.158 467.633 609.832 418.564 544.602 322.023L544.598 322.026Z" stroke="#F3E6D9" stroke-width="2" stroke-miterlimit="10"/>
<path d="M525.66 320.983C454.661 221.076 548.893 229.503 501.118 169.643C423.528 73.1129 339.553 216.193 268.022 212.892C183.1 208.979 150.72 351.766 273.5 456.831C395.482 560.983 468.142 528.658 512.686 494.573C567.112 452.929 587.379 407.835 525.653 320.981L525.66 320.983Z" stroke="#F3E6D9" stroke-width="2" stroke-miterlimit="10"/>
<path d="M506.73 319.941C442.746 235.304 528.723 238.408 486.611 185.218C419.877 100.933 344.069 223.767 281.924 227.175C206.841 231.296 183.029 355.625 288.527 447.988C393.061 539.251 460.114 511.06 500.224 479.27C552.052 438.192 565.046 397.079 506.727 319.937L506.73 319.941Z" stroke="#F3E6D9" stroke-width="2" stroke-miterlimit="10"/>
<path d="M487.796 318.896C431.015 249.412 508.44 247.396 472.1 200.795C416.033 128.9 348.526 231.505 295.822 241.46C230.508 253.804 215.335 359.49 303.55 439.146C390.64 517.519 452.045 493.421 487.757 463.97C536.95 423.402 542.841 386.259 487.796 318.896Z" stroke="#F3E6D9" stroke-width="2" stroke-miterlimit="10"/>
<path d="M468.858 317.852C419.522 263.358 488.143 256.397 457.586 216.368C412.172 156.877 352.994 239.484 309.722 255.738C254.201 276.598 247.641 363.344 318.567 430.296C388.216 495.783 443.933 475.718 475.285 448.66C521.776 408.529 520.848 375.274 468.863 317.85L468.858 317.852Z" stroke="#F3E6D9" stroke-width="2" stroke-miterlimit="10"/>
<path d="M449.928 316.811C408.338 277.002 467.827 265.417 443.078 231.951C408.279 184.891 357.662 247.755 323.622 270.028C278.145 299.783 279.95 367.214 333.593 421.459C385.794 474.058 435.774 457.985 462.818 433.36C506.522 393.568 499.195 363.969 449.928 316.811Z" stroke="#F3E6D9" stroke-width="2" stroke-miterlimit="10"/>
<path d="M430.989 315.769C397.453 290.105 447.452 274.47 428.563 247.524C404.32 212.937 362.761 256.141 337.517 284.309C302.676 323.188 312.251 371.07 348.606 412.612C383.365 452.324 427.541 440.187 450.341 418.053C491.114 378.477 478.104 351.822 430.987 315.764L430.989 315.769Z" stroke="#F3E6D9" stroke-width="2" stroke-miterlimit="10"/>
</g>
</g>
<defs>
<linearGradient id="paint0_linear_50_13432" x1="819.229" y1="139.99" x2="1.72851" y2="691.99" gradientUnits="userSpaceOnUse">
<stop stop-color="#D9D9D9"/>
<stop offset="1" stop-color="#D9D9D9" stop-opacity="0"/>
</linearGradient>
<clipPath id="clip0_50_13432">
<rect width="565" height="595" fill="white" transform="translate(0 218.995) rotate(-30.1752)"/>
</clipPath>
</defs>
</svg>
