<svg width="471" height="595" viewBox="0 0 471 595" fill="none" xmlns="http://www.w3.org/2000/svg">
<mask id="mask0_46_5471" style="mask-type:alpha" maskUnits="userSpaceOnUse" x="-92" y="0" width="563" height="595">
<rect x="-92" width="563" height="595" fill="url(#paint0_linear_46_5471)"/>
</mask>
<g mask="url(#mask0_46_5471)">
<path d="M388.39 404.487C387.036 199.019 485.532 297.104 465.898 178.367C432.36 -24.4409 199.375 124.481 116.593 32.7835C21.5159 -72.5363 -160.375 92.6679 -64.2607 343.566C31.849 594.464 145.528 598.594 226.138 593.433C306.748 588.271 389.423 561.425 388.39 404.482V404.487Z" stroke="#F3E6D9" stroke-width="2" stroke-miterlimit="10"/>
<path d="M372.543 394.066C369.079 205.253 463.471 294.679 445.524 184.534C414.979 -2.19549 199.779 133.243 121.428 52.1136C31.1746 -41.3356 -134.384 112.243 -46.8293 343.474C40.6797 574.465 147.434 579.56 223.051 573.939C301.132 568.134 375.242 540.813 372.549 394.071L372.543 394.066Z" stroke="#F3E6D9" stroke-width="2" stroke-miterlimit="10"/>
<path d="M356.702 383.645C351.183 211.497 441.415 292.254 425.149 190.707C397.605 20.0449 200.152 141.994 126.267 71.4488C40.8026 -10.145 -108.398 131.818 -29.3978 343.377C49.5105 554.456 149.341 560.486 219.965 554.441C295.516 547.972 361.081 520.207 356.702 383.651V383.645Z" stroke="#F3E6D9" stroke-width="2" stroke-miterlimit="10"/>
<path d="M340.854 373.23C333.352 217.767 419.354 289.834 404.774 196.88C380.224 42.2903 200.484 150.74 131.102 90.784C50.3842 21.0303 -82.4124 151.393 -11.9667 343.28C58.3358 534.452 151.246 541.37 216.878 534.942C289.905 527.784 346.961 499.621 340.86 373.23H340.854Z" stroke="#F3E6D9" stroke-width="2" stroke-miterlimit="10"/>
<path d="M325.013 362.809C315.62 224.042 397.293 287.409 384.4 203.053C362.849 64.5357 200.761 159.491 135.936 110.119C59.8999 52.2055 -56.4262 170.974 5.46482 343.188C67.1667 514.448 153.153 522.224 213.792 515.443C284.294 507.565 332.883 479.055 325.018 362.809H325.013Z" stroke="#F3E6D9" stroke-width="2" stroke-miterlimit="10"/>
<path d="M309.166 352.389C298.005 230.332 375.232 284.983 364.02 209.22C345.464 86.7709 200.95 168.252 140.771 129.444C69.3232 83.3757 -30.4403 190.539 22.8909 343.081C75.9922 494.434 155.054 503.011 210.695 495.935C278.677 487.291 318.865 458.495 309.16 352.383L309.166 352.389Z" stroke="#F3E6D9" stroke-width="2" stroke-miterlimit="10"/>
<path d="M293.323 341.973C280.553 236.643 353.319 282.543 343.65 215.393C328.324 108.986 201.047 177.07 145.61 148.779C78.629 114.602 -4.4494 210.114 40.3272 342.989C84.8227 474.429 156.96 483.763 207.613 476.441C273.066 466.98 304.965 437.97 293.323 341.968V341.973Z" stroke="#F3E6D9" stroke-width="2" stroke-miterlimit="10"/>
<path d="M277.481 331.552C263.321 242.943 331.267 280.118 323.275 221.566C310.944 131.231 201.011 186 150.444 168.115C87.7762 145.956 21.5363 229.694 57.7582 342.897C93.6531 454.425 158.85 464.458 204.526 456.948C267.445 446.604 291.208 417.455 277.481 331.552Z" stroke="#F3E6D9" stroke-width="2" stroke-miterlimit="10"/>
<path d="M261.635 321.132C246.375 249.223 309.196 277.698 302.9 227.734C293.543 153.477 200.863 195.144 155.284 187.445C96.8015 177.57 47.5278 249.264 75.19 342.795C102.484 434.416 160.737 445.077 201.44 437.444C261.803 426.12 277.717 396.905 261.64 321.132H261.635Z" stroke="#F3E6D9" stroke-width="2" stroke-miterlimit="10"/>
<path d="M245.792 310.716C229.848 255.396 287.099 275.283 282.525 233.911C276.096 175.737 200.74 204.641 160.118 206.785C105.846 209.649 73.5133 268.849 92.6208 342.708C111.309 414.417 162.596 425.645 198.353 417.951C256.135 405.518 264.68 376.247 245.792 310.716Z" stroke="#F3E6D9" stroke-width="2" stroke-miterlimit="10"/>
<path d="M229.945 300.295C213.852 261.252 264.935 272.868 262.15 240.079C258.578 197.993 200.933 214.454 164.952 226.115C115.29 242.213 99.4988 288.42 110.046 342.606C120.134 394.408 164.425 406.121 195.261 398.447C250.401 384.728 252.553 355.146 229.945 300.29V300.295Z" stroke="#F3E6D9" stroke-width="2" stroke-miterlimit="10"/>
</g>
<defs>
<linearGradient id="paint0_linear_46_5471" x1="455.248" y1="116.063" x2="-36.6146" y2="116.063" gradientUnits="userSpaceOnUse">
<stop offset="0.627812" stop-color="#D9D9D9"/>
<stop offset="1" stop-color="#D9D9D9" stop-opacity="0"/>
</linearGradient>
</defs>
</svg>
