<svg width="146" height="43" viewBox="0 0 146 43" fill="none" xmlns="http://www.w3.org/2000/svg">
<path d="M19.904 27V17.192H16.064V15.8H25.328V17.192H21.488V27H19.904ZM26.6435 27V18.52H28.1155V20.824L27.9715 20.248C28.2062 19.6613 28.6008 19.2133 29.1555 18.904C29.7102 18.5947 30.3928 18.44 31.2035 18.44V19.928C31.1395 19.9173 31.0755 19.912 31.0115 19.912C30.9582 19.912 30.9048 19.912 30.8515 19.912C30.0302 19.912 29.3795 20.1573 28.8995 20.648C28.4195 21.1387 28.1795 21.848 28.1795 22.776V27H26.6435ZM36.7945 27.096C35.8878 27.096 35.0878 26.9093 34.3945 26.536C33.7118 26.1627 33.1785 25.6507 32.7945 25C32.4212 24.3493 32.2345 23.6027 32.2345 22.76C32.2345 21.9173 32.4158 21.1707 32.7785 20.52C33.1518 19.8693 33.6585 19.3627 34.2985 19C34.9492 18.6267 35.6798 18.44 36.4905 18.44C37.3118 18.44 38.0372 18.6213 38.6665 18.984C39.2958 19.3467 39.7865 19.8587 40.1385 20.52C40.5012 21.1707 40.6825 21.9333 40.6825 22.808C40.6825 22.872 40.6772 22.9467 40.6665 23.032C40.6665 23.1173 40.6612 23.1973 40.6505 23.272H33.4345V22.168H39.8505L39.2265 22.552C39.2372 22.008 39.1252 21.5227 38.8905 21.096C38.6558 20.6693 38.3305 20.3387 37.9145 20.104C37.5092 19.8587 37.0345 19.736 36.4905 19.736C35.9572 19.736 35.4825 19.8587 35.0665 20.104C34.6505 20.3387 34.3252 20.6747 34.0905 21.112C33.8558 21.5387 33.7385 22.0293 33.7385 22.584V22.84C33.7385 23.4053 33.8665 23.912 34.1225 24.36C34.3892 24.7973 34.7572 25.1387 35.2265 25.384C35.6958 25.6293 36.2345 25.752 36.8425 25.752C37.3438 25.752 37.7972 25.6667 38.2025 25.496C38.6185 25.3253 38.9812 25.0693 39.2905 24.728L40.1385 25.72C39.7545 26.168 39.2745 26.5093 38.6985 26.744C38.1332 26.9787 37.4985 27.096 36.7945 27.096ZM47.845 27V25.208L47.765 24.872V21.816C47.765 21.1653 47.573 20.664 47.189 20.312C46.8157 19.9493 46.2503 19.768 45.493 19.768C44.9917 19.768 44.501 19.8533 44.021 20.024C43.541 20.184 43.1357 20.4027 42.805 20.68L42.165 19.528C42.6023 19.176 43.125 18.9093 43.733 18.728C44.3517 18.536 44.997 18.44 45.669 18.44C46.8317 18.44 47.7277 18.7227 48.357 19.288C48.9863 19.8533 49.301 20.7173 49.301 21.88V27H47.845ZM45.061 27.096C44.4317 27.096 43.877 26.9893 43.397 26.776C42.9277 26.5627 42.565 26.2693 42.309 25.896C42.053 25.512 41.925 25.08 41.925 24.6C41.925 24.1413 42.0317 23.7253 42.245 23.352C42.469 22.9787 42.8263 22.68 43.317 22.456C43.8183 22.232 44.4903 22.12 45.333 22.12H48.021V23.224H45.397C44.629 23.224 44.1117 23.352 43.845 23.608C43.5783 23.864 43.445 24.1733 43.445 24.536C43.445 24.952 43.6103 25.288 43.941 25.544C44.2717 25.7893 44.7303 25.912 45.317 25.912C45.893 25.912 46.3943 25.784 46.821 25.528C47.2583 25.272 47.573 24.8987 47.765 24.408L48.069 25.464C47.8663 25.9653 47.509 26.3653 46.997 26.664C46.485 26.952 45.8397 27.096 45.061 27.096ZM55.0555 27.096C54.2022 27.096 53.5408 26.8667 53.0715 26.408C52.6022 25.9493 52.3675 25.2933 52.3675 24.44V16.664H53.9035V24.376C53.9035 24.8347 54.0155 25.1867 54.2395 25.432C54.4742 25.6773 54.8048 25.8 55.2315 25.8C55.7115 25.8 56.1115 25.6667 56.4315 25.4L56.9115 26.504C56.6768 26.7067 56.3942 26.856 56.0635 26.952C55.7435 27.048 55.4075 27.096 55.0555 27.096ZM50.9275 19.784V18.52H56.3355V19.784H50.9275ZM69.3765 18.44C70.0592 18.44 70.6618 18.5733 71.1845 18.84C71.7072 19.1067 72.1125 19.512 72.4005 20.056C72.6992 20.6 72.8485 21.288 72.8485 22.12V27H71.3125V22.296C71.3125 21.4747 71.1205 20.856 70.7365 20.44C70.3525 20.024 69.8138 19.816 69.1205 19.816C68.6085 19.816 68.1605 19.9227 67.7765 20.136C67.3925 20.3493 67.0938 20.664 66.8805 21.08C66.6778 21.496 66.5765 22.0133 66.5765 22.632V27H65.0405V22.296C65.0405 21.4747 64.8485 20.856 64.4645 20.44C64.0912 20.024 63.5525 19.816 62.8485 19.816C62.3472 19.816 61.9045 19.9227 61.5205 20.136C61.1365 20.3493 60.8378 20.664 60.6245 21.08C60.4112 21.496 60.3045 22.0133 60.3045 22.632V27H58.7685V18.52H60.2405V20.776L60.0005 20.2C60.2672 19.6453 60.6778 19.2133 61.2325 18.904C61.7872 18.5947 62.4325 18.44 63.1685 18.44C63.9792 18.44 64.6778 18.6427 65.2645 19.048C65.8512 19.4427 66.2352 20.0453 66.4165 20.856L65.7925 20.6C66.0485 19.9493 66.4965 19.4267 67.1365 19.032C67.7765 18.6373 68.5232 18.44 69.3765 18.44ZM79.4508 27.096C78.5441 27.096 77.7441 26.9093 77.0508 26.536C76.3681 26.1627 75.8348 25.6507 75.4508 25C75.0774 24.3493 74.8908 23.6027 74.8908 22.76C74.8908 21.9173 75.0721 21.1707 75.4348 20.52C75.8081 19.8693 76.3148 19.3627 76.9548 19C77.6054 18.6267 78.3361 18.44 79.1468 18.44C79.9681 18.44 80.6934 18.6213 81.3228 18.984C81.9521 19.3467 82.4428 19.8587 82.7948 20.52C83.1574 21.1707 83.3388 21.9333 83.3388 22.808C83.3388 22.872 83.3334 22.9467 83.3228 23.032C83.3228 23.1173 83.3174 23.1973 83.3068 23.272H76.0908V22.168H82.5068L81.8828 22.552C81.8934 22.008 81.7814 21.5227 81.5468 21.096C81.3121 20.6693 80.9868 20.3387 80.5708 20.104C80.1654 19.8587 79.6908 19.736 79.1468 19.736C78.6134 19.736 78.1388 19.8587 77.7228 20.104C77.3068 20.3387 76.9814 20.6747 76.7468 21.112C76.5121 21.5387 76.3948 22.0293 76.3948 22.584V22.84C76.3948 23.4053 76.5228 23.912 76.7788 24.36C77.0454 24.7973 77.4134 25.1387 77.8828 25.384C78.3521 25.6293 78.8908 25.752 79.4988 25.752C80.0001 25.752 80.4534 25.6667 80.8588 25.496C81.2748 25.3253 81.6374 25.0693 81.9468 24.728L82.7948 25.72C82.4108 26.168 81.9308 26.5093 81.3548 26.744C80.7894 26.9787 80.1548 27.096 79.4508 27.096ZM89.9996 18.44C90.693 18.44 91.301 18.5733 91.8236 18.84C92.357 19.1067 92.773 19.512 93.0716 20.056C93.3703 20.6 93.5196 21.288 93.5196 22.12V27H91.9836V22.296C91.9836 21.4747 91.781 20.856 91.3756 20.44C90.981 20.024 90.421 19.816 89.6956 19.816C89.1516 19.816 88.677 19.9227 88.2716 20.136C87.8663 20.3493 87.5516 20.664 87.3276 21.08C87.1143 21.496 87.0076 22.0133 87.0076 22.632V27H85.4716V18.52H86.9436V20.808L86.7036 20.2C86.981 19.6453 87.4076 19.2133 87.9836 18.904C88.5596 18.5947 89.2316 18.44 89.9996 18.44ZM99.2743 27.096C98.4209 27.096 97.7596 26.8667 97.2903 26.408C96.8209 25.9493 96.5863 25.2933 96.5863 24.44V16.664H98.1223V24.376C98.1223 24.8347 98.2343 25.1867 98.4583 25.432C98.6929 25.6773 99.0236 25.8 99.4503 25.8C99.9303 25.8 100.33 25.6667 100.65 25.4L101.13 26.504C100.896 26.7067 100.613 26.856 100.282 26.952C99.9623 27.048 99.6263 27.096 99.2743 27.096ZM95.1463 19.784V18.52H100.554V19.784H95.1463ZM105.419 27.096C104.715 27.096 104.043 27 103.403 26.808C102.774 26.616 102.278 26.3813 101.915 26.104L102.555 24.888C102.918 25.1333 103.366 25.3413 103.899 25.512C104.433 25.6827 104.977 25.768 105.531 25.768C106.246 25.768 106.758 25.6667 107.067 25.464C107.387 25.2613 107.547 24.9787 107.547 24.616C107.547 24.3493 107.451 24.1413 107.259 23.992C107.067 23.8427 106.811 23.7307 106.491 23.656C106.182 23.5813 105.835 23.5173 105.451 23.464C105.067 23.4 104.683 23.3253 104.299 23.24C103.915 23.144 103.563 23.016 103.243 22.856C102.923 22.6853 102.667 22.456 102.475 22.168C102.283 21.8693 102.187 21.4747 102.187 20.984C102.187 20.472 102.331 20.024 102.619 19.64C102.907 19.256 103.313 18.9627 103.835 18.76C104.369 18.5467 104.998 18.44 105.723 18.44C106.278 18.44 106.838 18.5093 107.403 18.648C107.979 18.776 108.449 18.9627 108.811 19.208L108.155 20.424C107.771 20.168 107.371 19.992 106.955 19.896C106.539 19.8 106.123 19.752 105.707 19.752C105.035 19.752 104.534 19.864 104.203 20.088C103.873 20.3013 103.707 20.5787 103.707 20.92C103.707 21.208 103.803 21.432 103.995 21.592C104.198 21.7413 104.454 21.8587 104.763 21.944C105.083 22.0293 105.435 22.104 105.819 22.168C106.203 22.2213 106.587 22.296 106.971 22.392C107.355 22.4773 107.702 22.6 108.011 22.76C108.331 22.92 108.587 23.144 108.779 23.432C108.982 23.72 109.083 24.104 109.083 24.584C109.083 25.096 108.934 25.5387 108.635 25.912C108.337 26.2853 107.915 26.5787 107.371 26.792C106.827 26.9947 106.177 27.096 105.419 27.096Z" fill="white"/>
<path d="M124.062 23.1668L128.087 19.148C128.126 19.1087 128.172 19.0777 128.223 19.0567C128.275 19.0358 128.33 19.0253 128.385 19.026C128.44 19.0267 128.495 19.0385 128.546 19.0606C128.597 19.0828 128.642 19.115 128.681 19.1552C128.759 19.2374 128.802 19.3469 128.8 19.4603C128.799 19.5736 128.753 19.682 128.673 19.7624L124.352 24.0782C124.313 24.1172 124.267 24.1482 124.216 24.1691C124.165 24.1901 124.11 24.2008 124.055 24.2004C124 24.2001 123.946 24.1888 123.895 24.1672C123.845 24.1456 123.799 24.1141 123.761 24.0746L119.324 19.532C119.245 19.4507 119.201 19.342 119.201 19.229C119.201 19.1159 119.245 19.0073 119.324 18.926C119.362 18.8863 119.408 18.8547 119.459 18.8331C119.51 18.8115 119.565 18.8004 119.621 18.8004C119.676 18.8004 119.731 18.8115 119.782 18.8331C119.833 18.8547 119.879 18.8863 119.918 18.926L124.062 23.1668Z" fill="white"/>
</svg>
