<svg width="100" height="100" viewBox="0 0 100 100" fill="none" xmlns="http://www.w3.org/2000/svg">
<g clip-path="url(#clip0_733_10515)">
<path d="M14.5759 35.8023L7.42508 28.4669L17.575 29.9116L18.4013 28.2838L9.40406 19.1984L8.65939 20.6635L15.9939 28.121L5.62971 26.6254L4.90544 28.0396L12.1787 35.5276L1.88595 33.9914L1.08008 35.5887L13.7395 37.4505L14.5759 35.8023Z" fill="#DCB187"/>
<path d="M30.7868 16.9397L29.8687 15.7392L24.2378 20.0225L21.8609 16.9092L26.7064 13.2262L25.8189 12.0562L20.9735 15.7392L18.7088 12.7786L24.146 8.64795L23.2381 7.4576L16.4238 12.6361L23.7787 22.2607L30.7868 16.9397Z" fill="#DCB187"/>
<path d="M47.0569 12.3614C48.0055 12.2698 48.8522 12.0155 49.6071 11.6187C50.362 11.2219 50.9842 10.6827 51.4739 10.001L50.2396 9.02432C49.8315 9.56355 49.3521 9.98068 48.8012 10.2757C48.2504 10.5708 47.6485 10.7437 46.9855 10.8149C46.302 10.8862 45.6695 10.8353 45.0575 10.6623C44.4556 10.4894 43.915 10.2249 43.4457 9.84842C42.9765 9.47198 42.599 9.02432 42.3032 8.47493C42.0074 7.92554 41.834 7.32527 41.7626 6.66396C41.6912 6.00265 41.7524 5.37187 41.9258 4.78178C42.0992 4.19169 42.3848 3.66264 42.7725 3.21498C43.1601 2.75716 43.6293 2.39089 44.1904 2.09585C44.7514 1.81098 45.3635 1.62784 46.047 1.5668C46.6998 1.50576 47.3323 1.5668 47.9341 1.73976C48.536 1.91272 49.0868 2.21794 49.5969 2.65542L50.6068 1.45489C49.9947 0.895318 49.2705 0.488359 48.4544 0.254358C47.6383 0.0203566 46.761 -0.0508613 45.8225 0.0407045C44.9045 0.13227 44.068 0.366272 43.3233 0.752883C42.5786 1.13949 41.9462 1.63802 41.4259 2.24846C40.9057 2.8589 40.5282 3.5609 40.2732 4.33412C40.0284 5.10734 39.9468 5.95178 40.0386 6.84709C40.1304 7.7424 40.3752 8.54615 40.7731 9.25833C41.1709 9.9705 41.681 10.5809 42.3032 11.0795C42.9255 11.578 43.6497 11.9443 44.4556 12.1681C45.2615 12.3919 46.1286 12.4631 47.0467 12.3716L47.0569 12.3614Z" fill="#DCB187"/>
<path d="M64.2354 11.5373L64.6843 14.8133L66.4389 15.3118L64.4497 2.16705L62.7971 1.69905L54.1875 11.8425L55.9013 12.3309L58.0129 9.78736L64.2252 11.5475L64.2354 11.5373ZM63.1439 3.61176L64.0314 10.0417L58.9922 8.61735L63.1439 3.62193V3.61176Z" fill="#DCB187"/>
<path d="M73.4054 15.5763L75.772 17.4178C75.9863 17.5806 76.1903 17.7332 76.3943 17.8655L76.1495 22.3929L77.6388 23.5527L77.8836 18.5777C77.9958 18.6184 78.1081 18.6591 78.2203 18.6896C79.0159 18.8931 79.7708 18.8625 80.4747 18.6184C81.1785 18.3742 81.811 17.9062 82.3517 17.2144C82.8923 16.5225 83.1983 15.8104 83.2799 15.0575C83.3513 14.3046 83.1983 13.5721 82.8107 12.8497C82.4231 12.1274 81.811 11.4355 80.9745 10.7844L77.2512 7.87465L69.7637 17.4077L71.1306 18.4759L73.4054 15.5763ZM81.556 14.0503C81.709 14.7726 81.5254 15.4746 80.9949 16.1563C80.4543 16.8379 79.8218 17.194 79.0771 17.2144C78.3325 17.2347 77.5266 16.9091 76.6493 16.2275L74.3337 14.4165L77.7 10.1333L80.0156 11.9442C80.8929 12.6259 81.403 13.3279 81.5662 14.0503H81.556Z" fill="#DCB187"/>
<path d="M85.0349 34.8764L86.3406 34.1134L82.7396 28.0395L86.106 26.0454L89.207 31.2748L90.4822 30.522L87.3811 25.2925L90.5842 23.4002L94.0627 29.2706L95.3684 28.5075L91.0024 21.1517L80.5566 27.307L85.0349 34.8764Z" fill="#DCB187"/>
<path d="M99.9688 45.1013H98.459L98.4692 49.2523L87.8398 49.2828L87.85 50.992L98.4794 50.9615L98.4896 55.1125H99.9994L99.9688 45.1013Z" fill="#DCB187"/>
<path d="M95.2661 61.6848C94.6847 61.1049 93.991 60.6471 93.1647 60.3215C92.3385 59.9858 91.5122 59.8331 90.6961 59.8535C89.88 59.8738 89.1048 60.0468 88.3601 60.3724C87.6256 60.6979 86.9626 61.1761 86.3811 61.7865C85.7997 62.397 85.3304 63.1397 84.9836 63.9943C84.6367 64.8489 84.4633 65.6934 84.4531 66.5378C84.4531 67.3721 84.5959 68.1656 84.902 68.9185C85.208 69.6714 85.6466 70.3225 86.2281 70.9024C86.8095 71.4722 87.5134 71.93 88.3499 72.2657C89.1864 72.6015 90.0126 72.7643 90.8287 72.7439C91.6448 72.7236 92.4201 72.5506 93.1647 72.225C93.8992 71.8893 94.5623 71.4213 95.1335 70.8109C95.7048 70.2004 96.1638 69.4679 96.5107 68.6133C96.8575 67.7485 97.0309 66.8939 97.0411 66.0494C97.0411 65.205 96.8881 64.4114 96.5821 63.6687C96.276 62.926 95.8374 62.2647 95.2559 61.6848H95.2661ZM95.0825 68.0435C94.8377 68.6642 94.4909 69.1932 94.0624 69.6409C93.634 70.0885 93.1443 70.4242 92.5935 70.6582C92.0426 70.8923 91.4612 71.0143 90.8491 71.0245C90.2371 71.0347 89.6148 70.9126 88.9925 70.6684C88.3703 70.4141 87.8398 70.0783 87.4012 69.651C86.9626 69.2237 86.6259 68.7354 86.3913 68.186C86.1567 67.6366 86.0343 67.0567 86.0343 66.4462C86.0343 65.8256 86.1567 65.2152 86.4117 64.5946C86.6667 63.9638 87.0034 63.4246 87.4318 62.9871C87.8602 62.5394 88.3499 62.2037 88.9007 61.9595C89.4516 61.7153 90.033 61.5932 90.6451 61.5831C91.2572 61.5729 91.8794 61.695 92.5017 61.9392C93.1239 62.1935 93.6544 62.5292 94.093 62.9566C94.5317 63.3839 94.8683 63.8722 95.1029 64.4318C95.3375 64.9812 95.4498 65.5713 95.4498 66.1817C95.4498 66.8023 95.3273 67.4229 95.0723 68.0537L95.0825 68.0435Z" fill="#DCB187"/>
<path d="M73.9255 79.2626L72.5586 80.327L80.0289 89.8701L81.3958 88.8057L73.9255 79.2626Z" fill="#DCB187"/>
<path d="M66.103 84.3525L69.1837 92.8376L59.2582 86.835L57.9219 87.3131L62.0533 98.6978L63.6854 98.1077L60.6047 89.6226L70.5303 95.6354L71.8666 95.1471L67.7352 83.7624L66.103 84.3525Z" fill="#DCB187"/>
<path d="M46.8938 89.2868C47.3426 89.1443 47.9139 89.0833 48.6178 89.1036C49.393 89.124 50.1377 89.2868 50.8416 89.5716C51.5454 89.8565 52.1269 90.2126 52.5757 90.6297L53.2592 89.3071C52.7899 88.8391 52.1371 88.4525 51.3006 88.1473C50.4641 87.8319 49.5868 87.6691 48.6688 87.6386C47.6079 87.6081 46.7204 87.7302 46.0063 88.0252C45.2922 88.3202 44.7618 88.7272 44.415 89.2359C44.0681 89.7446 43.8743 90.3144 43.8539 90.9248C43.8335 91.5556 43.9457 92.0846 44.2007 92.4916C44.4558 92.8985 44.7924 93.2343 45.2208 93.4988C45.6493 93.7633 46.1185 93.9668 46.6388 94.1296C47.159 94.2924 47.6793 94.445 48.1893 94.5874C48.7096 94.7299 49.1788 94.8723 49.6073 95.0452C50.0357 95.208 50.3825 95.4217 50.6478 95.6862C50.913 95.9507 51.0354 96.2966 51.0252 96.724C51.015 97.08 50.9028 97.4056 50.6886 97.6803C50.4743 97.9652 50.1479 98.1788 49.6991 98.3416C49.2502 98.5044 48.6892 98.5654 48.0057 98.5451C47.4651 98.5247 46.904 98.4332 46.3327 98.2602C45.7615 98.0873 45.2208 97.8126 44.7108 97.4565L44.0885 98.8198C44.5884 99.1861 45.18 99.4709 45.8635 99.6744C46.547 99.8779 47.2508 100 47.9547 100.02C49.0156 100.061 49.9031 99.9288 50.5967 99.6337C51.2904 99.3387 51.8209 98.9317 52.1677 98.423C52.5145 97.9143 52.6981 97.3446 52.7185 96.724C52.7389 96.083 52.6267 95.5438 52.3717 95.1266C52.1167 94.7095 51.7801 94.3738 51.3516 94.1194C50.9232 93.8651 50.4539 93.6514 49.9337 93.4785C49.4134 93.3055 48.8932 93.1529 48.3831 93.0206C47.8629 92.8884 47.3936 92.7358 46.9652 92.5628C46.5368 92.3898 46.1899 92.1762 45.9247 91.9117C45.6595 91.6471 45.5371 91.3114 45.5473 90.8943C45.5575 90.5382 45.6697 90.2228 45.8941 89.9481C46.1083 89.6734 46.445 89.4597 46.8836 89.3173L46.8938 89.2868Z" fill="#DCB187"/>
<path d="M36.3669 89.2969L33.6024 88.1473C32.6231 87.7403 31.7153 87.547 30.889 87.5673C30.0627 87.5877 29.3486 87.8115 28.7264 88.2388C28.1143 88.6661 27.6349 89.2766 27.2982 90.0905C26.9616 90.8942 26.8494 91.6776 26.982 92.4101C27.1044 93.1528 27.4513 93.8243 28.0225 94.4144C28.5938 95.0045 29.3588 95.5132 30.3381 95.9202L34.7041 97.7413L39.3864 86.5703L37.7848 85.8988L36.3669 89.2766V89.2969ZM33.6841 95.6963L30.9604 94.567C29.9403 94.1397 29.2568 93.6005 28.91 92.9392C28.5632 92.2779 28.5632 91.5555 28.8998 90.762C29.2364 89.9684 29.7567 89.4597 30.4707 89.246C31.1848 89.0324 32.0519 89.1341 33.072 89.5614L35.7956 90.6907L33.6943 95.6963H33.6841Z" fill="#DCB187"/>
<path d="M25.1683 78.6337L17.4551 87.9825L18.7942 89.0815L26.5074 79.7327L25.1683 78.6337Z" fill="#DCB187"/>
<path d="M19.8403 73.1814L16.7698 75.2264L15.107 72.7337C14.9642 72.5099 14.8112 72.3064 14.6582 72.1131L16.3107 67.8909L15.26 66.3241L13.4647 70.9736C13.3729 70.9024 13.2708 70.821 13.179 70.76C12.4854 70.3225 11.7611 70.1089 11.0164 70.119C10.2718 70.1292 9.52709 70.3836 8.79262 70.8617C8.05815 71.3501 7.5481 71.93 7.24208 72.6218C6.93605 73.3137 6.85444 74.0564 6.98705 74.8703C7.11966 75.6842 7.4869 76.5286 8.07855 77.4138L10.7002 81.3409L20.8094 74.6363L19.8505 73.2017L19.8403 73.1814ZM8.5478 74.1174C8.62941 73.3849 9.02724 72.7744 9.75151 72.2963C10.4758 71.8181 11.1898 71.6858 11.9141 71.8893C12.6282 72.103 13.3014 72.6625 13.9135 73.5884L15.5457 76.0403L10.996 79.062L9.36388 76.61C8.75182 75.6842 8.47639 74.8601 8.558 74.1174H8.5478Z" fill="#DCB187"/>
<path d="M11.8127 53.2506L10.3438 53.566L11.8331 60.4639L7.99755 61.2778L6.72243 55.3464L5.2739 55.6618L6.55922 61.5932L2.90727 62.3766L1.47914 55.7127L0 56.0281L1.80557 64.3809L13.6693 61.8374L11.8127 53.2506Z" fill="#DCB187"/>
</g>
<defs>
<clipPath id="clip0_733_10515">
<rect width="100" height="100" fill="white"/>
</clipPath>
</defs>
</svg>
