<svg width="100" height="100" viewBox="0 0 100 100" fill="none" xmlns="http://www.w3.org/2000/svg">
<g clip-path="url(#clip0_1_61)">
<path d="M14.5769 35.8024L7.42605 28.467L17.576 29.9117L18.4023 28.2838L9.40504 19.1985L8.66037 20.6635L15.9949 28.1211L5.63068 26.6255L4.90641 28.0397L12.1797 35.5277L1.88693 33.9914L1.08105 35.5888L13.7404 37.4506L14.5769 35.8024Z" fill="#E8CDB4"/>
<path d="M30.7863 16.9397L29.8682 15.7391L24.2373 20.0224L21.8605 16.9091L26.7059 13.2262L25.8184 12.0562L20.973 15.7391L18.7084 12.7785L24.1455 8.64787L23.2376 7.45752L16.4233 12.6361L23.7782 22.2607L30.7863 16.9397Z" fill="#E8CDB4"/>
<path d="M47.0569 12.3613C48.0055 12.2697 48.8522 12.0154 49.6071 11.6186C50.362 11.2218 50.9842 10.6826 51.4739 10.0009L50.2396 9.0242C49.8315 9.56342 49.3521 9.98056 48.8012 10.2756C48.2504 10.5706 47.6485 10.7436 46.9855 10.8148C46.302 10.886 45.6695 10.8352 45.0575 10.6622C44.4556 10.4893 43.915 10.2247 43.4457 9.84829C42.9765 9.47186 42.599 9.0242 42.3032 8.47481C42.0074 7.92541 41.834 7.32515 41.7626 6.66384C41.6912 6.00253 41.7524 5.37175 41.9258 4.78165C42.0992 4.19156 42.3848 3.66252 42.7725 3.21486C43.1601 2.75703 43.6293 2.39077 44.1904 2.09573C44.7514 1.81085 45.3635 1.62772 46.047 1.56668C46.6998 1.50563 47.3323 1.56668 47.9341 1.73964C48.536 1.91259 49.0868 2.21781 49.5969 2.65529L50.6068 1.45476C49.9947 0.895196 49.2705 0.488237 48.4544 0.254236C47.6383 0.0202345 46.761 -0.0509833 45.8225 0.0405824C44.9045 0.132148 44.068 0.36615 43.3233 0.752761C42.5786 1.13937 41.9462 1.6379 41.4259 2.24834C40.9057 2.85877 40.5282 3.56078 40.2732 4.334C40.0284 5.10722 39.9468 5.95166 40.0386 6.84697C40.1304 7.74228 40.3752 8.54603 40.7731 9.2582C41.1709 9.97038 41.681 10.5808 42.3032 11.0793C42.9255 11.5779 43.6497 11.9441 44.4556 12.168C45.2615 12.3918 46.1286 12.463 47.0467 12.3714L47.0569 12.3613Z" fill="#E8CDB4"/>
<path d="M64.2354 11.5372L64.6843 14.8132L66.4389 15.3118L64.4497 2.16698L62.7971 1.69897L54.1875 11.8424L55.9013 12.3308L58.0129 9.78728L64.2252 11.5474L64.2354 11.5372ZM63.1439 3.61168L64.0314 10.0416L58.9922 8.61728L63.1439 3.62186V3.61168Z" fill="#E8CDB4"/>
<path d="M73.4059 15.5765L75.7725 17.4179C75.9867 17.5807 76.1908 17.7333 76.3948 17.8656L76.15 22.393L77.6393 23.5529L77.8841 18.5778C77.9963 18.6185 78.1085 18.6592 78.2208 18.6897C79.0164 18.8932 79.7713 18.8626 80.4752 18.6185C81.179 18.3743 81.8115 17.9063 82.3521 17.2145C82.8928 16.5226 83.1988 15.8105 83.2804 15.0576C83.3518 14.3047 83.1988 13.5722 82.8112 12.8498C82.4236 12.1275 81.8115 11.4356 80.975 10.7845L77.2517 7.87476L69.7642 17.4078L71.1311 18.476L73.4059 15.5765ZM81.5565 14.0504C81.7095 14.7727 81.5259 15.4747 80.9954 16.1564C80.4548 16.838 79.8223 17.1941 79.0776 17.2145C78.333 17.2348 77.5271 16.9092 76.6498 16.2276L74.3342 14.4166L77.7005 10.1334L80.0161 11.9443C80.8934 12.626 81.4035 13.328 81.5667 14.0504H81.5565Z" fill="#E8CDB4"/>
<path d="M85.0349 34.8765L86.3406 34.1135L82.7396 28.0396L86.106 26.0455L89.207 31.275L90.4822 30.5221L87.3811 25.2927L90.5842 23.4003L94.0627 29.2707L95.3684 28.5076L91.0024 21.1519L80.5566 27.3071L85.0349 34.8765Z" fill="#E8CDB4"/>
<path d="M99.9698 45.1013H98.46L98.4702 49.2523L87.8408 49.2828L87.851 50.992L98.4804 50.9615L98.4906 55.1125H100L99.9698 45.1013Z" fill="#E8CDB4"/>
<path d="M95.2666 61.6849C94.6852 61.105 93.9915 60.6472 93.1652 60.3216C92.339 59.9859 91.5127 59.8333 90.6966 59.8536C89.8805 59.8739 89.1053 60.0469 88.3606 60.3725C87.6261 60.698 86.963 61.1762 86.3816 61.7867C85.8001 62.3971 85.3309 63.1398 84.9841 63.9944C84.6372 64.849 84.4638 65.6935 84.4536 66.5379C84.4536 67.3722 84.5964 68.1657 84.9025 68.9186C85.2085 69.6715 85.6471 70.3226 86.2286 70.9025C86.81 71.4723 87.5139 71.9301 88.3504 72.2658C89.1869 72.6016 90.0131 72.7644 90.8292 72.744C91.6453 72.7237 92.4206 72.5507 93.1652 72.2251C93.8997 71.8894 94.5628 71.4214 95.134 70.811C95.7053 70.2005 96.1643 69.468 96.5111 68.6134C96.858 67.7486 97.0314 66.894 97.0416 66.0495C97.0416 65.2051 96.8886 64.4115 96.5826 63.6688C96.2765 62.9261 95.8379 62.2648 95.2564 61.6849H95.2666ZM95.083 68.0436C94.8382 68.6643 94.4914 69.1933 94.0629 69.641C93.6345 70.0886 93.1448 70.4244 92.594 70.6584C92.0431 70.8924 91.4617 71.0144 90.8496 71.0246C90.2376 71.0348 89.6153 70.9127 88.993 70.6685C88.3708 70.4142 87.8403 70.0784 87.4017 69.6511C86.963 69.2238 86.6264 68.7355 86.3918 68.1861C86.1572 67.6367 86.0348 67.0568 86.0348 66.4463C86.0348 65.8257 86.1572 65.2153 86.4122 64.5947C86.6672 63.9639 87.0039 63.4247 87.4323 62.9872C87.8607 62.5395 88.3504 62.2038 88.9012 61.9596C89.4521 61.7154 90.0335 61.5933 90.6456 61.5832C91.2577 61.573 91.8799 61.6951 92.5022 61.9393C93.1244 62.1936 93.6549 62.5294 94.0935 62.9567C94.5322 63.384 94.8688 63.8723 95.1034 64.4319C95.338 64.9813 95.4502 65.5714 95.4502 66.1818C95.4502 66.8024 95.3278 67.423 95.0728 68.0538L95.083 68.0436Z" fill="#E8CDB4"/>
<path d="M73.925 79.2625L72.5581 80.3269L80.0284 89.87L81.3953 88.8056L73.925 79.2625Z" fill="#E8CDB4"/>
<path d="M66.1026 84.3525L69.1832 92.8376L59.2577 86.835L57.9214 87.3132L62.0528 98.6978L63.6849 98.1078L60.6042 89.6227L70.5298 95.6355L71.8661 95.1471L67.7347 83.7625L66.1026 84.3525Z" fill="#E8CDB4"/>
<path d="M46.8933 89.2868C47.3422 89.1443 47.9134 89.0833 48.6173 89.1036C49.3925 89.124 50.1372 89.2868 50.8411 89.5716C51.5449 89.8565 52.1264 90.2126 52.5752 90.6297L53.2587 89.3071C52.7895 88.8391 52.1366 88.4525 51.3001 88.1473C50.4636 87.8319 49.5864 87.6691 48.6683 87.6386C47.6074 87.6081 46.7199 87.7302 46.0058 88.0252C45.2918 88.3202 44.7613 88.7272 44.4145 89.2359C44.0676 89.7446 43.8738 90.3144 43.8534 90.9248C43.833 91.5556 43.9452 92.0846 44.2003 92.4916C44.4553 92.8985 44.7919 93.2343 45.2204 93.4988C45.6488 93.7633 46.118 93.9668 46.6383 94.1296C47.1585 94.2924 47.6788 94.445 48.1888 94.5874C48.7091 94.7299 49.1783 94.8723 49.6068 95.0452C50.0352 95.208 50.382 95.4217 50.6473 95.6862C50.9125 95.9507 51.0349 96.2966 51.0247 96.724C51.0145 97.08 50.9023 97.4056 50.6881 97.6803C50.4738 97.9652 50.1474 98.1788 49.6986 98.3416C49.2497 98.5044 48.6887 98.5654 48.0052 98.5451C47.4646 98.5247 46.9035 98.4332 46.3323 98.2602C45.761 98.0873 45.2204 97.8126 44.7103 97.4565L44.088 98.8198C44.5879 99.1861 45.1795 99.4709 45.863 99.6744C46.5465 99.8779 47.2503 100 47.9542 100.02C49.0151 100.061 49.9026 99.9288 50.5963 99.6337C51.2899 99.3387 51.8204 98.9317 52.1672 98.423C52.514 97.9143 52.6977 97.3446 52.7181 96.724C52.7385 96.083 52.6262 95.5438 52.3712 95.1266C52.1162 94.7095 51.7796 94.3738 51.3511 94.1194C50.9227 93.8651 50.4534 93.6514 49.9332 93.4785C49.4129 93.3055 48.8927 93.1529 48.3826 93.0206C47.8624 92.8884 47.3932 92.7358 46.9647 92.5628C46.5363 92.3898 46.1894 92.1762 45.9242 91.9117C45.659 91.6471 45.5366 91.3114 45.5468 90.8943C45.557 90.5382 45.6692 90.2228 45.8936 89.9481C46.1078 89.6734 46.4445 89.4597 46.8831 89.3173L46.8933 89.2868Z" fill="#E8CDB4"/>
<path d="M36.3659 89.2968L33.6015 88.1471C32.6222 87.7402 31.7143 87.5469 30.888 87.5672C30.0617 87.5876 29.3477 87.8114 28.7254 88.2387C28.1133 88.666 27.6339 89.2764 27.2973 90.0904C26.9606 90.8941 26.8484 91.6775 26.981 92.41C27.1035 93.1527 27.4503 93.8242 28.0215 94.4143C28.5928 95.0044 29.3579 95.5131 30.3372 95.92L34.7032 97.7412L39.3854 86.5702L37.7839 85.8987L36.3659 89.2764V89.2968ZM33.6831 95.6962L30.9594 94.5669C29.9393 94.1396 29.2559 93.6004 28.909 92.9391C28.5622 92.2778 28.5622 91.5554 28.8988 90.7618C29.2355 89.9683 29.7557 89.4596 30.4698 89.2459C31.1838 89.0323 32.0509 89.134 33.071 89.5613L35.7947 90.6906L33.6933 95.6962H33.6831Z" fill="#E8CDB4"/>
<path d="M25.1674 78.6336L17.4541 87.9824L18.7932 89.0814L26.5065 79.7326L25.1674 78.6336Z" fill="#E8CDB4"/>
<path d="M19.8407 73.1815L16.7703 75.2264L15.1075 72.7338C14.9647 72.51 14.8117 72.3065 14.6587 72.1132L16.3112 67.891L15.2605 66.3242L13.4651 70.9737C13.3733 70.9025 13.2713 70.8211 13.1795 70.7601C12.4859 70.3226 11.7616 70.1089 11.0169 70.1191C10.2722 70.1293 9.52758 70.3836 8.79311 70.8618C8.05864 71.3502 7.54859 71.9301 7.24256 72.6219C6.93654 73.3137 6.85493 74.0564 6.98754 74.8704C7.12015 75.6843 7.48739 76.5287 8.07904 77.4138L10.7007 81.341L20.8098 74.6364L19.8509 73.2018L19.8407 73.1815ZM8.54829 74.1175C8.62989 73.385 9.02773 72.7745 9.752 72.2963C10.4763 71.8182 11.1903 71.6859 11.9146 71.8894C12.6287 72.103 13.3019 72.6626 13.914 73.5884L15.5461 76.0404L10.9965 79.062L9.36436 76.6101C8.75231 75.6843 8.47688 74.8602 8.55849 74.1175H8.54829Z" fill="#E8CDB4"/>
<path d="M11.8127 53.2505L10.3438 53.5659L11.8331 60.4638L7.99755 61.2778L6.72243 55.3463L5.2739 55.6617L6.55922 61.5931L2.90727 62.3765L1.47914 55.7126L0 56.028L1.80557 64.3808L13.6693 61.8373L11.8127 53.2505Z" fill="#E8CDB4"/>
</g>
<defs>
<clipPath id="clip0_1_61">
<rect width="100" height="100" fill="white"/>
</clipPath>
</defs>
</svg>
