<svg width="16" height="16" viewBox="0 0 16 16" fill="none" xmlns="http://www.w3.org/2000/svg">
<path d="M1.4544 1.0912C1.35814 1.09141 1.26588 1.12974 1.19781 1.19781C1.12974 1.26588 1.09141 1.35814 1.0912 1.4544V14.5456C1.0912 14.7456 1.2536 14.9088 1.4544 14.9088H14.5456C14.6419 14.9086 14.7341 14.8703 14.8022 14.8022C14.8703 14.7341 14.9086 14.6419 14.9088 14.5456V1.4544C14.9086 1.35814 14.8703 1.26588 14.8022 1.19781C14.7341 1.12974 14.6419 1.09141 14.5456 1.0912H1.4544ZM14.5456 0C15.3488 0 16 0.6512 16 1.4544V14.5456C16 14.7366 15.9624 14.9257 15.8893 15.1022C15.8162 15.2786 15.7091 15.439 15.574 15.574C15.439 15.7091 15.2786 15.8162 15.1022 15.8893C14.9257 15.9624 14.7366 16 14.5456 16H1.4544C1.26341 16 1.07428 15.9624 0.897825 15.8893C0.721369 15.8162 0.561037 15.7091 0.425984 15.574C0.29093 15.439 0.1838 15.2786 0.11071 15.1022C0.0376192 14.9257 0 14.7366 0 14.5456L0 1.4544C0 0.6512 0.6512 0 1.4544 0H14.5456ZM11.7488 7.44H4.728C4.58702 7.4454 4.45361 7.50521 4.35578 7.60686C4.25794 7.70851 4.20329 7.84411 4.20329 7.9852C4.20329 8.12629 4.25794 8.26189 4.35578 8.36354C4.45361 8.46519 4.58702 8.525 4.728 8.5304H11.7496C11.8943 8.5304 12.0331 8.47292 12.1354 8.3706C12.2377 8.26828 12.2952 8.1295 12.2952 7.9848C12.2952 7.8401 12.2377 7.70132 12.1354 7.599C12.0331 7.49668 11.8943 7.4392 11.7496 7.4392L11.7488 7.44Z" fill="#C08C5F"/>
</svg>
