<svg width="16" height="16" viewBox="0 0 16 16" fill="none" xmlns="http://www.w3.org/2000/svg">
<path d="M1.4544 1.0912C1.35814 1.09141 1.26588 1.12974 1.19781 1.19781C1.12974 1.26588 1.09141 1.35814 1.0912 1.4544V14.5456C1.0912 14.7456 1.2536 14.9088 1.4544 14.9088H14.5456C14.6419 14.9086 14.7341 14.8703 14.8022 14.8022C14.8703 14.7341 14.9086 14.6419 14.9088 14.5456V1.4544C14.9086 1.35814 14.8703 1.26588 14.8022 1.19781C14.7341 1.12974 14.6419 1.09141 14.5456 1.0912H1.4544ZM14.5456 0C15.3488 0 16 0.6512 16 1.4544V14.5456C16 14.7366 15.9624 14.9257 15.8893 15.1022C15.8162 15.2786 15.7091 15.439 15.574 15.574C15.439 15.7091 15.2786 15.8162 15.1022 15.8893C14.9257 15.9624 14.7366 16 14.5456 16H1.4544C1.26341 16 1.07428 15.9624 0.897825 15.8893C0.721369 15.8162 0.561037 15.7091 0.425984 15.574C0.29093 15.439 0.1838 15.2786 0.11071 15.1022C0.0376192 14.9257 0 14.7366 0 14.5456L0 1.4544C0 0.6512 0.6512 0 1.4544 0H14.5456ZM8.2384 3.928C8.16675 3.928 8.0958 3.94211 8.02961 3.96953C7.96341 3.99695 7.90327 4.03714 7.8526 4.0878C7.80194 4.13847 7.76175 4.19861 7.73433 4.26481C7.70691 4.331 7.6928 4.40195 7.6928 4.4736L7.692 7.44H4.7272C4.59656 7.44009 4.4703 7.48705 4.37135 7.57235C4.27241 7.65764 4.20735 7.77561 4.188 7.9048L4.1816 7.9848C4.1816 8.2872 4.4264 8.5312 4.7272 8.5312L7.692 8.5304V11.496C7.692 11.7704 7.8944 11.9968 8.1576 12.036L8.2376 12.0416C8.3823 12.0416 8.52108 11.9841 8.6234 11.8818C8.72572 11.7795 8.7832 11.6407 8.7832 11.496V8.5304H11.7488C11.8795 8.53053 12.0058 8.48377 12.1049 8.39862C12.204 8.31347 12.2693 8.19559 12.2888 8.0664L12.2944 7.9856C12.2944 7.8409 12.2369 7.70212 12.1346 7.5998C12.0323 7.49748 11.8935 7.44 11.7488 7.44H8.784V4.4736C8.78394 4.34308 8.73709 4.21691 8.65196 4.11798C8.56682 4.01905 8.44905 3.95392 8.32 3.9344L8.2384 3.928Z" fill="#C08C5F"/>
</svg>
