<svg width="46" height="32" viewBox="0 0 46 32" fill="none" xmlns="http://www.w3.org/2000/svg">
<g clip-path="url(#clip0_2542_3460)">
<path d="M44.5021 4.99111C44.241 4.02641 43.7318 3.14692 43.0252 2.44023C42.3185 1.73353 41.439 1.22429 40.4743 0.9632C36.9426 0 22.7286 0 22.7286 0C22.7286 0 8.51382 0.0291555 4.98208 0.992356C4.01737 1.25346 3.13789 1.76273 2.43123 2.46946C1.72456 3.17619 1.21537 4.05571 0.95435 5.02044C-0.113917 11.2956 -0.528317 20.8576 0.983683 26.8818C1.24473 27.8465 1.75393 28.726 2.4606 29.4327C3.16726 30.1394 4.04673 30.6486 5.01142 30.9097C8.54315 31.8729 22.7576 31.8729 22.7576 31.8729C22.7576 31.8729 36.9718 31.8729 40.5033 30.9097C41.468 30.6486 42.3475 30.1394 43.0542 29.4327C43.7609 28.726 44.2702 27.8465 44.5312 26.8818C45.658 20.5977 46.0052 11.0416 44.5021 4.99111Z" fill="#FF0000"/>
<path d="M18.2031 22.7662L29.9948 15.9364L18.2031 9.10651V22.7662Z" fill="white"/>
</g>
<defs>
<clipPath id="clip0_2542_3460">
<rect width="45.5111" height="32" fill="white"/>
</clipPath>
</defs>
</svg>
