<svg width="211" height="54" viewBox="0 0 211 54" fill="none" xmlns="http://www.w3.org/2000/svg">
<g clip-path="url(#clip0_297_2465)">
<path d="M74.4652 51.7329C69.4919 56.2675 62.1659 52.9519 57.1925 50.6846C52.1338 48.5027 47.1604 51.1234 42.7965 52.8666C36.6042 55.402 30.3996 52.4277 24.9996 50.4286C20.9039 49.2097 16.4546 50.258 12.7856 51.5623L12.7002 51.4769L18.5391 43.188C26.1332 39.2629 31.7161 47.1984 39.3956 45.8087C44.1983 44.2363 48.7329 41.3595 54.2304 42.2372C56.071 42.4932 57.7288 43.1148 59.3744 43.7243V43.3708L37.3843 13.3477H37.299L9.54311 51.5135L0.388672 51.4648L37.3843 0L74.4652 51.7329Z" fill="#DCB187"/>
<path d="M72.0517 26.5489V26.2198L72.4662 26.1711C73.2829 26.0735 73.5876 25.7566 73.6973 24.879C73.6973 24.7936 73.6973 24.7083 73.6973 24.623V16.6631C73.6973 15.883 73.3194 15.4685 72.5149 15.3345C72.454 15.3345 72.4052 15.3223 72.3443 15.3223L72.0517 15.2979V14.981H76.3303C76.5741 14.981 76.8057 14.981 77.0495 14.981C79.6337 15.0541 80.8648 16.1634 80.9136 18.0284C80.9136 18.2112 80.9136 18.3941 80.877 18.5647C80.682 20.2347 79.4996 21.283 77.598 21.2952C77.0861 21.2952 76.5863 21.2586 75.9646 21.1367L75.4283 21.0392V24.0501C75.4283 24.2939 75.4283 24.5377 75.4283 24.7814C75.4283 25.6591 75.928 26.1589 76.8423 26.2198L77.1836 26.2442V26.5733L75.8305 26.5368H74.4775H73.2707L72.0273 26.5611L72.0517 26.5489ZM75.4283 20.5029L75.7086 20.5638C76.0377 20.637 76.3669 20.6735 76.696 20.6735C78.0247 20.6979 78.9755 19.7593 78.9755 18.1503C78.9755 16.5534 78.0003 15.5904 76.5619 15.6026C76.245 15.6026 75.989 15.6392 75.7818 15.7001L75.4404 15.7977V20.5029H75.4283Z" fill="#DCB187"/>
<path d="M88.3008 15.3224V14.9689C89.215 15.0055 90.1658 15.0177 91.0922 15.0177C91.8358 15.0177 92.6159 14.9933 93.3595 14.9567V15.2615L92.9816 15.2859C92.3965 15.3346 92.1405 15.5662 92.1527 15.8831C92.1527 16.066 92.238 16.2732 92.5306 16.7486L94.8588 20.5518L97.1139 16.8583C97.504 16.2123 97.5893 15.9929 97.6015 15.8344C97.6137 15.5296 97.3699 15.3224 96.8335 15.2859L96.4191 15.2615V14.9445C97.053 14.9933 97.6746 15.0055 98.3085 14.9933C98.9545 14.9933 99.5762 14.9689 100.222 14.9202V15.2737L99.8688 15.3224C99.0399 15.4565 98.6986 15.7247 97.9672 16.9315L95.1879 21.527V25.0498C95.1879 25.708 95.6633 26.159 96.5654 26.2322L96.8579 26.2566V26.5979L95.6268 26.5491L94.3956 26.5247L93.0669 26.5491L91.7017 26.5979V26.2566L92.0064 26.22C92.4696 26.1712 92.7622 26.0493 92.9694 25.8421C93.2376 25.5861 93.3717 25.2692 93.3717 24.9888V21.5026L90.2755 16.3464C90.2146 16.2366 90.1292 16.1269 90.0561 16.0416C89.5807 15.4931 89.1906 15.3224 88.5811 15.3224H88.3008Z" fill="#DCB187"/>
<path d="M107.67 26.5855V26.2564L108.011 26.2198C108.657 26.1467 109.011 25.9151 109.206 25.4519C109.279 25.269 109.316 25.0984 109.316 24.9765V16.8582C109.316 15.8586 108.925 15.4442 107.962 15.3466L107.67 15.3223V14.981H111.924C112.168 14.981 112.412 14.981 112.668 14.981C115.398 15.0419 116.507 15.9927 116.556 17.8699C116.593 19.162 116.044 20.0031 114.764 20.576C114.642 20.637 114.521 20.6857 114.386 20.7345L113.996 20.8808L116.581 24.4767C117.519 25.7688 117.787 25.9882 118.507 26.1589L118.86 26.2564V26.5733H116.008L112.107 21.1611H111.046V24.9155C111.046 25.0009 111.046 25.074 111.071 25.1593C111.217 25.8541 111.619 26.1833 112.424 26.2198H112.729V26.6343C112.022 26.5855 111.424 26.5733 110.864 26.5733H109.279L107.67 26.5977V26.5855ZM111.046 20.5516H111.632C113.667 20.4907 114.642 19.5521 114.642 18.0284C114.642 16.5047 113.631 15.5539 112.168 15.5904C111.802 15.5904 111.497 15.6514 111.229 15.7489L111.046 15.822V20.5638V20.5516Z" fill="#DCB187"/>
<path d="M124.784 26.5733V26.2076L125.186 26.1467C125.722 26.0735 126.015 25.8907 126.344 25.3665C126.405 25.2812 126.454 25.1837 126.502 25.0862L130.976 14.7981L135.376 24.9521C135.706 25.7078 136.096 26.0248 136.705 26.1223L137.034 26.171V26.5855C136.279 26.5489 135.511 26.5245 134.755 26.5245L133.56 26.5489L132.341 26.5977V26.1954H132.658C133.365 26.1954 133.646 25.9394 133.621 25.5616C133.621 25.3056 133.572 25.1227 133.414 24.7205C133.377 24.6473 133.353 24.5742 133.316 24.5011L132.548 22.7336H128.392L127.551 24.6108C127.514 24.6717 127.49 24.7327 127.478 24.8058C127.368 25.0862 127.331 25.2324 127.319 25.4397C127.283 25.8907 127.575 26.1589 128.27 26.1954H128.587V26.5489C128.136 26.5245 127.709 26.5245 127.258 26.5124C126.819 26.5124 126.381 26.5124 125.93 26.5124L124.796 26.5489L124.784 26.5733ZM128.587 22.1363H132.28L130.464 17.8211L128.587 22.1363Z" fill="#DCB187"/>
<path d="M143.312 15.3588V14.981H146.652L150.712 23.5625L154.661 14.9931H157.964V15.3345L157.538 15.3954C156.733 15.5051 156.429 15.7733 156.319 16.3828C156.307 16.4559 156.307 16.5169 156.307 16.59V24.879C156.307 25.6957 156.843 26.232 157.684 26.232H157.964V26.6099C157.257 26.5733 156.477 26.5611 155.685 26.5489C154.625 26.5489 153.857 26.5733 152.955 26.6343V26.2808L153.345 26.232C154.173 26.1223 154.6 25.6469 154.6 24.8912V17.0044L150.151 26.5368L145.775 17.0044V24.5376C145.775 25.6957 146.128 26.1345 147.103 26.1833H147.384V26.5855C146.75 26.5489 146.128 26.5124 145.507 26.5124C144.787 26.5124 144.056 26.5368 143.325 26.5855V26.1711H143.69C144.41 26.1711 144.97 25.6225 144.97 24.6595V16.785C144.97 15.8099 144.617 15.432 143.812 15.3466C143.727 15.3466 143.642 15.3466 143.556 15.3466H143.312V15.3588Z" fill="#DCB187"/>
<path d="M166.887 26.5975V26.2074L167.179 26.183C168.057 26.1221 168.398 25.7564 168.496 24.7812C168.496 24.6715 168.508 24.5618 168.508 24.4521V16.7726C168.508 15.9559 168.081 15.5171 167.252 15.4318L166.887 15.3952V15.0173C167.63 15.0539 168.386 15.0661 169.166 15.0783C170.105 15.0783 170.97 15.0539 171.884 15.0051V15.3952H171.628C170.702 15.4683 170.312 15.8828 170.312 16.8214V24.9397C170.312 25.7076 170.812 26.183 171.604 26.183H171.921V26.6097C171.177 26.5609 170.422 26.5365 169.642 26.5365C168.642 26.5365 167.789 26.5487 166.899 26.6097" fill="#DCB187"/>
<path d="M180.576 15.3343V15.054H183.855L185.525 15.0296C186.427 15.0174 187.159 15.0418 187.792 15.1149C190.596 15.3953 192.4 17.3944 192.461 20.5637C192.522 24.1353 190.328 26.4147 186.244 26.5854C185.927 26.5854 185.61 26.5976 185.281 26.5976H180.576V26.2441L180.82 26.2197C181.698 26.1344 182.088 25.7443 182.173 24.8301C182.185 24.7448 182.197 24.6594 182.197 24.5741V16.4802C182.197 15.8341 181.759 15.4075 180.966 15.3465L180.564 15.3222L180.576 15.3343ZM183.941 25.5615C184.075 25.7565 184.221 25.8175 185.099 25.9028C185.33 25.9272 185.574 25.9394 185.806 25.9394C188.646 25.915 190.657 23.7574 190.547 20.4418C190.438 17.4066 188.524 15.5416 185.635 15.6025C185.391 15.6025 185.22 15.6147 185.086 15.6391L184.55 15.7366L183.941 15.8585V25.5615Z" fill="#DCB187"/>
<path d="M200.567 26.5732V26.1831L200.933 26.1465C201.786 26.0856 202.128 25.7443 202.213 24.9398C202.213 24.8666 202.213 24.7935 202.213 24.7081V16.4192C202.213 16.2241 202.152 16.0413 202.042 15.8706C201.859 15.5903 201.664 15.4806 201.043 15.3831C200.994 15.3831 200.933 15.3709 200.884 15.3709L200.555 15.3343V15.0417H209.368L209.539 17.7235H209.1L209.027 17.309C208.881 16.346 208.271 15.7853 207.162 15.7C207.052 15.7 206.955 15.6878 206.845 15.6878H204.456C204.139 15.6878 203.968 15.8341 203.968 16.1144V19.8201C203.968 19.8201 203.993 19.9176 204.066 19.9907C204.078 20.0029 204.102 20.0273 204.127 20.0395C204.2 20.0883 204.261 20.1005 204.322 20.1005L207.016 20.0761C207.174 20.0761 207.455 19.9664 207.698 19.7713C207.954 19.5763 208.088 19.2837 208.125 18.8327L208.149 18.467H208.564V22.4531H208.149L208.125 22.0508C208.088 21.4779 207.942 21.1853 207.589 20.9659C207.418 20.8562 207.211 20.7953 207.003 20.7953H204.383C204.102 20.7953 203.944 20.9415 203.944 21.1731V25.2567C203.944 25.5127 204.054 25.7077 204.249 25.8052C204.334 25.8418 204.419 25.8662 204.505 25.8662H207.199C208.637 25.8662 209.515 25.2689 210.051 23.9524L210.234 23.5136L210.599 23.6233L209.649 26.5732H200.543H200.567Z" fill="#DCB187"/>
<path d="M90.2021 39.1046V38.9461H90.3118C90.6775 38.9217 90.8359 38.7755 90.8847 38.4707C90.8847 38.4342 90.8847 38.4098 90.8847 38.3732V34.8626C90.8847 34.5944 90.7019 34.4116 90.3849 34.3872L90.1899 34.3628V34.2165C90.58 34.2409 90.97 34.2409 91.3479 34.2409C91.6648 34.2409 91.994 34.2287 92.2987 34.2043V34.3628H92.189C91.7745 34.4116 91.5917 34.6188 91.5917 35.1673V36.5326L91.8355 36.3863L91.994 36.2644L92.8838 35.3014C92.8838 35.3014 92.9935 35.1795 93.0423 35.1186C93.2739 34.826 93.3226 34.7163 93.3348 34.6432C93.3348 34.6066 93.3348 34.5578 93.3104 34.5091C93.2739 34.4359 93.2129 34.3994 93.0788 34.3872C93.0545 34.3872 93.0423 34.3872 93.0179 34.3872H92.9082V34.2287C93.2251 34.2409 93.542 34.2531 93.8712 34.2531C94.1393 34.2531 94.4441 34.2531 94.7123 34.2287V34.375L94.566 34.3994C94.2125 34.4481 94.0174 34.5822 93.5908 35.0454C93.3836 35.277 93.2373 35.4355 93.1032 35.5574L92.2865 36.3741L94.1759 38.4342C94.505 38.7998 94.7366 38.9339 95.0536 38.9705H95.1633V39.1168C94.8098 39.1168 94.4441 39.1046 94.0906 39.1046C93.7127 39.1046 93.3714 39.1046 92.9935 39.1168V38.9705H93.152C93.3836 38.9583 93.4445 38.9217 93.4689 38.812C93.4689 38.7998 93.4689 38.7877 93.4689 38.7755C93.4689 38.7267 93.4445 38.678 93.3958 38.6292L91.7624 36.8495L91.5673 36.7276V37.9831C91.5673 38.7145 91.6892 38.9096 92.0549 38.9583C92.0915 38.9583 92.128 38.9583 92.1646 38.9583H92.2743V39.1168C91.9818 39.1168 91.6648 39.0924 91.3113 39.0924H90.7384C90.5434 39.0924 90.3605 39.1046 90.1533 39.1168" fill="#DCB187"/>
<path d="M99.3687 39.1168V38.9461H99.4906C99.8684 38.9461 100.051 38.7389 100.051 38.2391V34.9601C100.051 34.5822 99.8684 34.3994 99.4906 34.375H99.3687V34.2166C99.71 34.2287 100.063 34.2409 100.417 34.2409C100.758 34.2409 101.136 34.2409 101.477 34.2166V34.375H101.331C100.953 34.4116 100.795 34.5944 100.795 35.0333V38.4464C100.795 38.6292 100.892 38.7267 101.002 38.7389H102.002C102.66 38.7633 102.952 38.5805 103.208 38.0319C103.233 37.9953 103.245 37.9466 103.269 37.91L103.355 37.7028L103.525 37.7637L103.062 39.129H99.3808L99.3687 39.1168Z" fill="#DCB187"/>
<path d="M107.829 39.1163V38.9457H107.95C108.316 38.9091 108.462 38.7506 108.511 38.3484C108.511 38.2996 108.511 38.2509 108.511 38.2143V34.984C108.511 34.6427 108.328 34.4477 107.987 34.4111H107.829V34.2405C108.146 34.2527 108.462 34.2648 108.779 34.2648C109.169 34.2648 109.535 34.2648 109.925 34.2283V34.3867H109.816C109.425 34.4111 109.255 34.594 109.255 34.984V38.4093C109.255 38.7263 109.462 38.9335 109.803 38.9335H109.937V39.1163C109.62 39.0919 109.304 39.0919 108.974 39.0798C108.56 39.0798 108.194 39.0798 107.816 39.1163" fill="#DCB187"/>
<path d="M114.264 34.3506V34.2166H115.581L118.457 37.6418V35.0333C118.457 34.6188 118.311 34.436 117.982 34.3872C117.945 34.3872 117.921 34.3872 117.897 34.3872H117.75V34.2166C118.043 34.2409 118.336 34.2409 118.64 34.2409C118.908 34.2409 119.152 34.2409 119.42 34.2166V34.3872L119.262 34.4116C118.945 34.4482 118.811 34.631 118.787 35.1308C118.787 35.1795 118.787 35.2405 118.787 35.3014V39.2265L115.471 35.2405V38.2513C115.471 38.7023 115.581 38.8608 115.922 38.934C115.959 38.934 115.983 38.934 116.019 38.9461H116.166V39.129C115.861 39.1168 115.544 39.1046 115.252 39.1046C114.983 39.1046 114.703 39.1046 114.435 39.1168V38.9583H114.593C114.922 38.9218 115.069 38.7755 115.117 38.3976C115.117 38.3488 115.117 38.3123 115.117 38.2635V34.826C115.117 34.826 115.117 34.8138 114.983 34.6919C114.801 34.5091 114.679 34.4482 114.447 34.3872L114.276 34.3506H114.264Z" fill="#DCB187"/>
<path d="M123.882 39.1163V38.9457H124.004C124.382 38.9091 124.516 38.7506 124.565 38.3484C124.565 38.2996 124.565 38.2509 124.565 38.2143V34.984C124.565 34.6427 124.382 34.4477 124.029 34.4111H123.882V34.2405C124.187 34.2527 124.516 34.2648 124.833 34.2648C125.235 34.2648 125.589 34.2648 125.979 34.2283V34.3867H125.869C125.479 34.4111 125.308 34.594 125.308 34.984V38.4093C125.308 38.7263 125.516 38.9335 125.857 38.9335H125.991V39.1163C125.674 39.0919 125.357 39.0919 125.028 39.0798C124.614 39.0798 124.248 39.0798 123.87 39.1163" fill="#DCB187"/>
<path d="M130.465 39.1046V38.9461H130.575C130.94 38.9217 131.099 38.7755 131.147 38.4707C131.147 38.4342 131.147 38.4098 131.147 38.3732V34.8626C131.147 34.5944 130.977 34.4116 130.648 34.3872L130.453 34.3628V34.2165C130.843 34.2409 131.233 34.2409 131.611 34.2409C131.928 34.2409 132.257 34.2287 132.574 34.2043V34.3628H132.464C132.049 34.4116 131.867 34.6188 131.867 35.1673V36.5326L132.11 36.3863L132.269 36.2644L133.159 35.3014C133.159 35.3014 133.268 35.1795 133.317 35.1186C133.549 34.826 133.598 34.7163 133.61 34.6432C133.61 34.6066 133.61 34.5578 133.573 34.5091C133.537 34.4359 133.476 34.3994 133.342 34.3872C133.317 34.3872 133.305 34.3872 133.281 34.3872H133.171V34.2287C133.488 34.2409 133.805 34.2531 134.122 34.2531C134.39 34.2531 134.695 34.2531 134.963 34.2287V34.375L134.816 34.3994C134.463 34.4481 134.256 34.5822 133.841 35.0454C133.622 35.277 133.488 35.4355 133.354 35.5574L132.537 36.3741L134.426 38.4342C134.768 38.7998 134.987 38.9339 135.304 38.9705H135.426V39.1168C135.085 39.1168 134.707 39.1046 134.353 39.1046C133.975 39.1046 133.622 39.1046 133.256 39.1168V38.9705H133.415C133.646 38.9583 133.719 38.9217 133.732 38.812C133.732 38.7998 133.732 38.7877 133.732 38.7755C133.732 38.7267 133.707 38.678 133.671 38.6292L132.037 36.8495L131.842 36.7276V37.9831C131.842 38.7145 131.964 38.9096 132.33 38.9583C132.366 38.9583 132.403 38.9583 132.44 38.9583H132.549V39.1168C132.257 39.1168 131.928 39.0924 131.586 39.0924H131.013C130.83 39.0924 130.635 39.1046 130.428 39.1168" fill="#DCB187"/>
<path d="M145.519 39.1045V38.946L145.689 38.9216C145.921 38.8851 146.043 38.8119 146.177 38.5925C146.201 38.556 146.226 38.5194 146.25 38.4706L148.127 34.1311L149.98 38.4097C150.114 38.7266 150.285 38.8607 150.541 38.8973L150.675 38.9216V39.0923C150.358 39.0801 150.041 39.0679 149.712 39.0679H149.212L148.7 39.0923V38.9216H148.834C149.127 38.9216 149.249 38.8119 149.236 38.6535C149.236 38.5438 149.212 38.4706 149.151 38.3C149.151 38.2634 149.127 38.239 149.115 38.2025L148.785 37.4589H147.03L146.677 38.2512C146.677 38.2512 146.652 38.3 146.64 38.3365C146.603 38.4584 146.579 38.5194 146.579 38.6047C146.567 38.7876 146.689 38.9095 146.981 38.9216H147.115V39.0679C146.933 39.0679 146.75 39.0679 146.555 39.0557C146.372 39.0557 146.189 39.0557 145.994 39.0557H145.519V39.1045ZM147.115 37.2273H148.663L147.896 35.411L147.103 37.2273H147.115Z" fill="#DCB187"/>
<path d="M154.966 34.375V34.2166H156.368L158.074 37.8369L159.744 34.2287H161.134V34.375L160.951 34.3994C160.61 34.4482 160.488 34.5579 160.439 34.8138C160.439 34.8382 160.439 34.8748 160.439 34.8992V38.3976C160.439 38.7389 160.671 38.9705 161.024 38.9705H161.146V39.129C160.853 39.1168 160.524 39.1046 160.183 39.1046C159.744 39.1046 159.415 39.1046 159.025 39.1412V38.9949L159.196 38.9705C159.537 38.9218 159.72 38.7267 159.72 38.4098V35.0942L157.843 39.1168L156.002 35.1064V38.2757C156.002 38.7633 156.148 38.9461 156.563 38.9705H156.685V39.1412C156.416 39.1168 156.148 39.1168 155.892 39.1168C155.587 39.1168 155.283 39.1168 154.978 39.1412V38.9705H155.124C155.429 38.9705 155.673 38.7389 155.673 38.3367V35.0211C155.673 34.6066 155.527 34.4482 155.185 34.4116C155.149 34.4116 155.112 34.4116 155.076 34.4116H154.966V34.375Z" fill="#DCB187"/>
<path d="M171.934 39.1532V37.5563H172.104L172.129 37.7392C172.226 38.3852 172.726 38.824 173.372 38.8118C173.896 38.8118 174.25 38.4705 174.274 38.0073C174.274 37.7635 174.201 37.5441 173.945 37.3125C173.896 37.2638 173.847 37.2272 173.799 37.2028L172.628 36.4836C172.177 36.2033 171.958 35.8498 171.946 35.4109C171.921 34.7527 172.421 34.2042 173.226 34.1554C173.36 34.1554 173.482 34.1554 173.616 34.1798L173.969 34.2773C174.067 34.3017 174.14 34.3139 174.201 34.3139C174.347 34.3139 174.445 34.2529 174.469 34.1432L174.493 34.0701H174.652V35.6547H174.506L174.481 35.5206C174.396 34.9721 174.116 34.643 173.701 34.4967C173.604 34.4601 173.494 34.4479 173.384 34.4479C172.921 34.4479 172.58 34.7771 172.592 35.1671C172.592 35.4841 172.763 35.7035 173.372 36.0448L173.762 36.252C173.847 36.2886 173.921 36.3373 174.006 36.3861C174.688 36.8127 174.944 37.2394 174.957 37.7635C174.957 37.8976 174.932 38.0317 174.896 38.1658C174.725 38.7387 174.225 39.1166 173.628 39.141C173.335 39.1532 173.031 39.1044 172.714 38.9947L172.555 38.9337C172.555 38.9337 172.47 38.9094 172.385 38.9094C172.251 38.9094 172.177 38.9581 172.129 39.0678L172.092 39.141H171.934V39.1532Z" fill="#DCB187"/>
<path d="M179.625 39.1042V38.9335H179.772C180.137 38.8969 180.272 38.7507 180.308 38.4094C180.308 38.385 180.308 38.3484 180.308 38.3118V34.8256C180.308 34.7403 180.284 34.6671 180.235 34.594C180.15 34.4721 180.076 34.4233 179.821 34.3868C179.796 34.3868 179.772 34.3868 179.747 34.3868H179.613V34.2527H183.319L183.392 35.3741H183.209L183.185 35.2035C183.124 34.789 182.868 34.5574 182.405 34.5209C182.356 34.5209 182.319 34.5209 182.271 34.5209H181.271C181.137 34.5209 181.064 34.5818 181.064 34.7037V36.264C181.064 36.264 181.064 36.3127 181.1 36.3371C181.1 36.3371 181.113 36.3493 181.125 36.3615C181.161 36.3737 181.186 36.3859 181.21 36.3859H182.344C182.417 36.3859 182.527 36.3249 182.636 36.2518C182.746 36.1665 182.807 36.0446 182.819 35.8617V35.7154H183.002V37.3976H182.831V37.227C182.807 36.9832 182.746 36.8613 182.6 36.7638C182.527 36.715 182.441 36.6906 182.356 36.6906H181.247C181.125 36.6906 181.064 36.7516 181.064 36.8491V38.5678C181.064 38.6775 181.113 38.7629 181.198 38.7994C181.235 38.8116 181.271 38.8238 181.308 38.8238H182.441C183.051 38.8238 183.416 38.5678 183.648 38.0193L183.721 37.8364L183.88 37.8852L183.477 39.1285H179.65L179.625 39.1042Z" fill="#DCB187"/>
<path d="M188.231 39.1042V38.9335H188.378C188.743 38.8969 188.877 38.7507 188.914 38.4094C188.914 38.385 188.914 38.3484 188.914 38.3118V34.8256C188.914 34.7403 188.89 34.6671 188.841 34.594C188.768 34.4721 188.682 34.4233 188.426 34.3868C188.402 34.3868 188.378 34.3868 188.353 34.3868H188.219V34.2527H191.925L191.998 35.3741H191.815L191.791 35.2035C191.73 34.789 191.474 34.5574 191.011 34.5209C190.962 34.5209 190.925 34.5209 190.877 34.5209H189.877C189.743 34.5209 189.67 34.5818 189.67 34.7037V36.264C189.67 36.264 189.67 36.3127 189.706 36.3371C189.706 36.3371 189.719 36.3493 189.731 36.3615C189.767 36.3737 189.792 36.3859 189.816 36.3859H190.95C191.023 36.3859 191.133 36.3249 191.242 36.2518C191.34 36.1665 191.413 36.0446 191.425 35.8617V35.7154H191.608V37.3976H191.437V37.227C191.413 36.9832 191.352 36.8613 191.194 36.7638C191.12 36.715 191.035 36.6906 190.95 36.6906H189.853C189.731 36.6906 189.67 36.7516 189.67 36.8491V38.5678C189.67 38.6775 189.719 38.7629 189.804 38.7994C189.84 38.8116 189.877 38.8238 189.914 38.8238H191.047C191.657 38.8238 192.022 38.5678 192.254 38.0193L192.327 37.8364L192.486 37.8852L192.083 39.1285H188.256L188.231 39.1042Z" fill="#DCB187"/>
</g>
<defs>
<clipPath id="clip0_297_2465">
<rect width="210.223" height="54.0002" fill="white" transform="translate(0.388672)"/>
</clipPath>
</defs>
</svg>
